<svg xmlns="http://www.w3.org/2000/svg" viewBox="0 0 300.71 170.88"><defs><style>.cls-1{fill:none;}.cls-2{fill:#fff;}</style></defs><g id="Слой_2" data-name="Слой 2"><g id="Слой_1-2" data-name="Слой 1"><g id="Слой_2-2" data-name="Слой 2"><g id="Слой_1-2-2" data-name="Слой 1-2"><path class="cls-1" d="M193,22.68a44.47,44.47,0,0,0,6.3,3.92c3.09,1.43,6.35,2.47,9.89,2a4.31,4.31,0,0,0,4-4.62,3.91,3.91,0,0,0-.15-.83,18.33,18.33,0,0,0-1.26-3.23c-1.2-2.43-2.53-4.8-3.69-7.24a35.89,35.89,0,0,1-1.45-4h-.38a7.46,7.46,0,0,0,0,2.11c.48,1.58,1.11,3.13,1.72,4.67.85,2.16,1.84,4.27,2.57,6.47a2.61,2.61,0,0,1-1.42,3.4,2.71,2.71,0,0,1-.84.2,14.15,14.15,0,0,1-9.75-2.35c-1.52-1.08-3.06-2.14-4.67-3.06a11.78,11.78,0,0,0-2.73-.76A4.18,4.18,0,0,0,193,22.68Z"/><path class="cls-1" d="M45.15,112.86c.47-2.16.94-4.33,1.43-6.5h0l-1.79,7.94-.13.6h0C44.84,114.22,45,113.54,45.15,112.86Z"/><path class="cls-1" d="M47,104.33l-.12.09-.06.26h.1Z"/><path class="cls-1" d="M87.28,114.37q-1.43,1.93-2.91,3.67c.54.32,1.09.62,1.66.9a35.93,35.93,0,0,0,2.31-3.87C88,114.83,87.64,114.59,87.28,114.37Z"/><path class="cls-1" d="M94.22,121.85c.06-1.45,0-1.45-.63-2.2q-1.28-1.34-2.67-2.55a19.84,19.84,0,0,1-2.24,3c.45.17.9.34,1.35.49Z"/><path class="cls-1" d="M118.36,146c-.33,2.32-1.16,8-.86,10,1.4,1.28,2.46,1.51,3.28,2.78a49.78,49.78,0,0,1-.84-8.44c-.16-4,1.33-8.07,1.45-11a7.29,7.29,0,0,0-.88.45C118.93,141.18,118.79,143,118.36,146Z"/><path class="cls-1" d="M220.68,6.68h-1.79c-.33-.79-.68-1.63-1.15-2.78-1.19,1.85-2.19,3.44-3.2,5C216.44,8.16,218.89,8.83,220.68,6.68Z"/><polygon class="cls-1" points="44.03 115.63 44.03 115.64 44.03 115.63 44.03 115.63"/><path class="cls-2" d="M297.2,27.68c-1.42-.13-5.22,1.68-7.61,2.26-4.4,1.08-8.61.44-8.9,3.75,1.83,1.19,5.5.63,7.31-.27,4.45-2.2,2.78-2.76,5.34-3,.41,1.75.08,1.4.91,2,1.24-1.07,4.67-1.34,4.81-4.35l-1.6-.44Z"/><path class="cls-2" d="M113.24,130.37c-.49,1-4.87,6.41-6.09,6.83.68,1.71-2.63,23.42-.07,26.32,2.54,1.55,8.7,1.8,12,.86.91-6.15-4.49-4.7-4.51-7.74,0-1.34-.12-.06-.1-1.19l.51-6.08c.07-.91.38-1.52.52-2.4a36.87,36.87,0,0,1,1-5c.86-3,.71-2,3-3.49l8.85-3.6c4.68-1.18,8.88-3.79,12.56-6.51a45.4,45.4,0,0,0,5.92-5.68c-9.22.66-19.3-.83-28.38-3A9.64,9.64,0,0,1,118,122C116.77,125,114.56,127.56,113.24,130.37Z"/><path class="cls-2" d="M117.5,156.05c-.3-2,.53-7.7.86-10,.43-3,.57-4.85,2.15-6.16-2.26,1.35-2.38,3.26-2.86,6.7-.33,2.33-1.15,8-.84,10.08,1.76,1.6,3,1.56,3.89,4,.63,1.69.84,3.38.08,4.51,1.07-.74,1.29-2,1-3.48a9.52,9.52,0,0,1-1-2.84C120,157.56,118.9,157.33,117.5,156.05Z"/><path class="cls-2" d="M280.57,42.13A19.18,19.18,0,0,0,276,47.74a31.41,31.41,0,0,0-4.32,10.1,31.22,31.22,0,0,1,4.23-9.68,19.26,19.26,0,0,1,4.56-5.56c6.45-4.14,15.37-3.1,18.12-8a8.63,8.63,0,0,0,1.14-2.27,15.76,15.76,0,0,1-.94,1.71C296,39,287.05,38,280.57,42.13Z"/><path class="cls-2" d="M259.54,151.24c-1.48-2.08-3.11-2.08-6.5-2.28v.25C256.42,149.41,258.11,149.39,259.54,151.24Z"/><path class="cls-2" d="M148.33,126.3a30.9,30.9,0,0,1-2.84,2,35.85,35.85,0,0,0,3.4-2.33l4-4.08-.29.06Z"/><path class="cls-2" d="M158.19,116.57l.15-.16.71-.74A1.4,1.4,0,0,0,158.19,116.57Z"/><path class="cls-2" d="M122.22,144.24c-.81,5.12-1.19,12,1.23,16.6,2,1,11.28,3.65,11.41.56a4.39,4.39,0,0,0-4-4.66l-1,.72c-.72.37-.11.25-1.17.28l-.11-1.88a83.23,83.23,0,0,1,.62-11.16c.65-4.92,1.4-5.11,2.86-8.64l-8.82,2.45C122.87,140.32,122.53,142.31,122.22,144.24Z"/><path class="cls-2" d="M242.28,151.5l.17,4.49a5.74,5.74,0,0,1,2.28.79C246.68,158.18,243.74,152.68,242.28,151.5Z"/><path class="cls-2" d="M251.26,153.05c-.23-.48-.79-8.36-.87-9.1-1-9.63.89-19.7.76-29.06a33.16,33.16,0,0,0-6.29,3.32c-.45,8.64-4.1,16.62-2.15,27.41.13,3.94,4.93,13.06,7.66,12.78,3,.1,6.33.86,9.07,0C259.72,150.55,253.82,153.26,251.26,153.05Z"/><path class="cls-2" d="M134.15,136.21a17.31,17.31,0,0,0-1.53,3.19c-1.29,3.5-2.69,12.65-2.14,15.59,4.66-.13,7.36,5.21,5.53,7.86,2.81-2.3.09-8.56-4.92-8.43-.55-2.92.87-12,2.16-15.48a18.09,18.09,0,0,1,1.52-3.17,14.21,14.21,0,0,1,3.34-2.79A16.88,16.88,0,0,0,134.15,136.21Z"/><path class="cls-2" d="M288.44,29.38a5.81,5.81,0,0,0,.59,0c3.76-2.89,5.36.09,10.06-8.06a11.32,11.32,0,0,0,1.17-3.09,11.16,11.16,0,0,1-1,2.45C294.26,29.36,292.75,25.47,288.44,29.38Z"/><path class="cls-2" d="M300.65,29.86l-.08-.11a2.1,2.1,0,0,0-.35.85Z"/><path d="M152.63,122a48.65,48.65,0,0,1-5.77.73,45.4,45.4,0,0,1-5.92,5.68c-3.68,2.72-7.88,5.33-12.56,6.51l-8.85,3.6c-2.26,1.46-2.11.52-3,3.49a36.87,36.87,0,0,0-1,5c-.14.88-.45,1.49-.52,2.4l-.51,6.08c0,1.13.08-.15.1,1.19,0,3,5.42,1.59,4.51,7.74-3.34.94-9.5.69-12-.86-2.56-2.9.75-24.61.07-26.32,1.22-.42,5.6-5.79,6.09-6.83,1.32-2.81,3.53-5.38,4.75-8.47a9.19,9.19,0,0,0,.49-2.21l-2.48-.61a28.84,28.84,0,0,1-3.23,8.52l-4.31,5.23c-4.35,4.07-3.43,3.61-3.55,8.21-.1,3.82-2.06,14-.77,18,.31.95,1.56,5.6,1.6,5.66,1,1.64,11.35,2.47,13.84,1.43a2.6,2.6,0,0,0,1.2-1c.76-1.13.55-2.82-.08-4.51-.89-2.43-2.13-2.39-3.89-4-.31-2.06.51-7.75.84-10.08.48-3.44.6-5.35,2.86-6.7a7.29,7.29,0,0,1,.88-.45c-.12,2.9-1.61,7-1.45,11a49.78,49.78,0,0,0,.84,8.44,9.52,9.52,0,0,0,1,2.84c1.69,2.8,4.71,2,10,2.58,2.16.23,3.51-.39,4.21-1.4,1.83-2.65-.87-8-5.53-7.86-.55-2.94.85-12.09,2.14-15.59a17.31,17.31,0,0,1,1.53-3.19,17.09,17.09,0,0,1,4-3.23c2.32-1.56,5.17-3.28,7.38-4.69a30.9,30.9,0,0,0,2.84-2ZM129,144.71a81.61,81.61,0,0,0-.62,11.16l.11,1.88c1.06,0,.45.09,1.17-.28l1-.72a4.4,4.4,0,0,1,4,4.66c-.13,3.09-9.38.46-11.41-.56-2.42-4.64-2-11.48-1.23-16.6.31-1.93.65-3.92.94-5.73l8.82-2.45c-1.38,3.52-2.13,3.71-2.78,8.63Z"/><path d="M277,15.34c1.59-.21,1.61,0,2.6-1.31-.72-.45-.6-.13-1.51,0a6.48,6.48,0,0,0-1-2.45c-1.14.85-.68,1-1.42,2.36a2.73,2.73,0,0,1-.92,1.15,4.64,4.64,0,0,0-.5.49L274,16C274.85,16.25,276.08,15.46,277,15.34Z"/><path d="M270.79,88.79a1.14,1.14,0,0,0-1.1.1,5.33,5.33,0,0,1-1.78,1l-.63.64c-1.89,7.12-6.32,14-16.8,20.79a30.36,30.36,0,0,1-3.53,2.5l-.25.21c.83.33-1.14,2.33-1.15,3s-.88,1.33-1.48,1c-.14-.11-.28-.2-.42-.29a2.91,2.91,0,0,1-.27.69,2.38,2.38,0,0,1-.24.51c-.07.23-.13.45-.19.71l-2.09,15.17c-.21,3.69.27,7.86-.2,11.36-.41,3,.57,9.34.13,11.48,4.17.46,7.47,2.19,5.55,6.94-7.58,1.21-11.39-.6-13-3.16a16.57,16.57,0,0,1-2.13-7.85c-.37-6.25-2.3-42.24-4.61-46.85-.61.34-.22,0-.66.51-1.8,2.12.14,8.17.29,11-10.86.84-21.58-.72-31.2-2.91-.42,1-.76,1.83-1,2.56,10.13,1.81,21.41,3.18,28.52,2.9.67,0,1.08-.16,1.89-.2l1.94.21c2,7.21,2.45,21.68,2.84,29.05,0,0-.8,13.54,5.7,15a65.57,65.57,0,0,0,10.88,1.39c.27-.19,4.93-1.16,2.46-6.51,4.48,0,7.06.32,12.17,0a7.39,7.39,0,0,0-.14-7.49,9.75,9.75,0,0,0-.75-1.14c-1.46-1.85-3.12-1.83-6.5-2V149c-.25-8.43-1.09-33.54,2.38-37.78a56.49,56.49,0,0,1,7.25-6.11c1.72-1.62,5-6.36,5.28-8.24a28.06,28.06,0,0,0,3.11-8Zm-26.1,68a5.74,5.74,0,0,0-2.28-.79l-.17-4.49c1.5,1.17,4.44,6.67,2.49,5.27Zm14.71,1.63c-2.74.85-6.06.09-9.07,0-2.73.28-7.53-8.84-7.66-12.78-2-10.79,1.7-18.77,2.15-27.41a33.16,33.16,0,0,1,6.29-3.32c.13,9.36-1.78,19.43-.76,29.06.08.74.64,8.62.87,9.1,2.6.19,8.5-2.52,8.22,5.34Z"/><path d="M295,27.31c-2.12.75-3.69,1.91-6.06,2.05a5.8,5.8,0,0,1-.59,0c4.31-3.91,5.82,0,10.82-8.72a10.69,10.69,0,0,0,1-2.45c.89-3.05.77-6.78-.75-9.26-4.28-.44-9.63,1-14.17,1.15-3,.1-3.85-1.1-5.62-2.15-4-2.4-10.12-1.06-14.25.18C262,9.11,256.12,10.5,254,13c-6.41,7.62-4.24,9.15-8.42,15.56C237.19,41.42,224.44,48.86,210,53.52c-.16.62-.3,1.26-.43,1.89,14.92-4.54,27.81-11.15,34.55-21.2L246,31.6c.29-.41.47-.7.78-1.22l.92-1.43c5-7.37,5.1-14.59,13.43-17.84,1.15-.44,2-.89,3.15-1.34,3-1.21,8.71-2.44,12-2.16,2.9.26,3.66,2.37,6,3.13,4.15,1.33,12.38-1.32,16.37-1l.41,2.6c-1.29,0-2.13-.46-3.09.07l-.59.46-.17.19c1.14.92,2,.5,3.81.54.08,3.22-2.11,8.75-4.86,10.31-3.06,1.74-3.28,2.55-7,3.4-2.66.6-5.06,1.46-6.91,3.44-1.35,1.5-4.31,3.2-1.59,5.2a2.8,2.8,0,0,0,1.25.66c1.81.45,4.72-.63,7.06-1.31,2.17-.62,3.66-2,5.59-1.61,2.79.56,3.42-1,5.49-1.7-.49,5.15-7.49,4.69-10.75,5.92-4.22,1.6-8.77,2.12-11.08,5.53-10.47,15.33-6.6,29.07-8.17,42l0,0a10.28,10.28,0,0,1,3-1.08,1.93,1.93,0,0,0,.34,0c.65-8.82-2-17.24.08-26.52a31.33,31.33,0,0,1,4.35-10.09,19.18,19.18,0,0,1,4.57-5.61C286.9,38,295.86,39,298.65,34a17.68,17.68,0,0,0,.94-1.71c.12-.32.23-.66.33-1s.12-.52.16-.67a2.1,2.1,0,0,1,.35-.85c.07-.13.16-.27.28-.48C299.4,27.43,298.31,26.1,295,27.31Zm-.7,5.16c-.83-.66-.5-.3-.91-2-2.56.2-.89.76-5.34,3-1.81.9-5.48,1.46-7.31.27.29-3.31,4.5-2.67,8.9-3.75,2.39-.58,6.19-2.39,7.61-2.26h.26l1.6.44C298.92,31.15,295.49,31.47,294.25,32.47Z"/><path d="M262,33.18c3.12,1.07,8.75,2.7,10.76-1.25,1.75-3.45-5-10.56-5.59-16-.38.39-.16-.68-.52.74-.27,1.07.34,1.6.53,2.62.64,3.57,8,12.69-.43,12.3-5.61-.26-7.18-2.6-9.5-3.95-2.55-1.48-1.75-1.73-4.33-1.66C252.91,28.84,259.29,32.26,262,33.18Z"/><path d="M271,85.47a9.06,9.06,0,0,1,.14-1.18h-.31a8.48,8.48,0,0,0-2.8,1.08v.4a2.05,2.05,0,0,1,.07.68c0,.22-.05.45.93.67h0v.09a5.36,5.36,0,0,0-1.59,2.49V90a5.49,5.49,0,0,0,2.24-1.14,2.35,2.35,0,0,1,1.1-.17h-.19a8.55,8.55,0,0,1,.36-1.43.06.06,0,0,0,0-.06,4.91,4.91,0,0,1,.08-.67v-.3A3.14,3.14,0,0,1,271,85.47Z"/><path d="M246.94,114a3.68,3.68,0,0,1-.91.5,4.29,4.29,0,0,1-.5.29,4.89,4.89,0,0,1-1,.65c-.14.11-.28.22-.42.31a4,4,0,0,1-.07.48v.24a4,4,0,0,1-.17,1.24c.14.09.28.18.42.29.61.38,1.36-.22,1.48-1S247.76,114.37,246.94,114Z"/><path class="cls-2" d="M280.54,30.63c1.86-2,4.27-2.85,6.94-3.45,3.74-.86,4-1.67,7-3.42,2.76-1.57,5-7.12,4.87-10.35-1.84,0-2.67.38-3.83-.54l.18-.2.6-.46c1-.53,1.8,0,3.1-.07L299,9.53c-4-.36-12.28,2.3-16.44,1-2.38-.77-3.14-2.89-6-3.15-3.3-.28-9,1-12.05,2.17-1.14.45-2,.91-3.16,1.35-8.39,3.22-8.47,10.47-13.51,17.89l-.92,1.48c-.31.52-.49.81-.78,1.22l-1.84,2.62c-6.77,10.05-19.71,16.73-34.7,21.29-.18.88-.35,1.76-.48,2.65-1,7-.82,13.94-1,20.93a40.36,40.36,0,0,1-3,15.53A31.87,31.87,0,0,1,195.82,107c-4,3.17-8.17,6.14-12.37,9a8.23,8.23,0,0,0-3.31,4.67h3c2.17-1,7.25-3.84,14.76-11.71-1.41,2.78-2.43,4.93-3.18,6.65,9.66,2.2,20.43,3.77,31.33,2.93-.15-2.9-2.1-9-.29-11.05.44-.51,0-.17.66-.51,2.32,4.63,4.26,40.77,4.63,47a16.65,16.65,0,0,0,2.14,7.89c1.59,2.57,5.43,4.39,13.06,3.17,1.92-4.77-1.39-6.51-5.58-7,.45-2.15-.54-8.46-.13-11.53.48-3.51,0-7.7.2-11.4l2.1-15.24c.06-.26.12-.48.19-.71a3.32,3.32,0,0,1-.46.71,5.7,5.7,0,0,0,.25-.8,5.86,5.86,0,0,0,.26-.57,5.51,5.51,0,0,0,1-3,4.46,4.46,0,0,0,2.94-1.84,32.59,32.59,0,0,0,3.42-2.43c10.24-6.62,14.69-13.36,16.66-20.31a3.8,3.8,0,0,0,.18-.54,5.46,5.46,0,0,0,1-3.82,5.88,5.88,0,0,0-.08-1.57l0,0c0,.08,0,.16.07.24,1.5-12.89-2.27-26.6,8.17-41.9,2.33-3.42,6.89-3.94,11.13-5.55,3.28-1.24,10.3-.77,10.79-5.95-2.07.73-2.71,2.27-5.51,1.71-1.94-.4-3.43,1-5.61,1.62-2.35.68-5.27,1.77-7.09,1.31a2.89,2.89,0,0,1-1.26-.66C276.2,33.82,279.16,32.12,280.54,30.63ZM272.71,32c-2,3.95-7.64,2.32-10.76,1.25-2.66-.92-9-4.34-9.08-7.16,2.58-.07,1.78.18,4.33,1.66,2.32,1.35,3.89,3.69,9.5,3.95,8.4.39,1.07-8.73.43-12.3-.19-1-.8-1.55-.53-2.62.36-1.42.14-.35.52-.74C267.7,21.37,274.46,28.48,272.71,32ZM277,15.34c-.92.12-2.15.91-2.95.62l.21-.39a4.64,4.64,0,0,1,.5-.49,2.73,2.73,0,0,0,.92-1.15c.74-1.39.28-1.51,1.42-2.36a6.48,6.48,0,0,1,1,2.45c.91-.12.79-.44,1.51,0C278.61,15.34,278.59,15.13,277,15.34Z"/><path d="M73.51,88.64c.14-.85.26-1.69.37-2.54a11.45,11.45,0,0,1,.49-2c.55-1.68,1-3.38,1.52-5.08A4.28,4.28,0,0,0,76,78c0-.07-.15-.16-.24-.22a.17.17,0,0,0-.17,0,8.8,8.8,0,0,0-.6.9,15.82,15.82,0,0,1-2.81,3.59,31.7,31.7,0,0,0-4.3,5.43,6.39,6.39,0,0,0-1.07,4,24.94,24.94,0,0,1-.11,4.49c.65-.54,1.32-1,1.94-1.62A6.38,6.38,0,0,1,70,93.66,6.44,6.44,0,0,0,73.51,88.64Z"/><path d="M65.48,98.82a9.07,9.07,0,0,0-1.44.77c-.49.24-1.1-.14-1.59.24-.13.11-.28.21-.68.52a17,17,0,0,1,4.86.77,21.1,21.1,0,0,0,9.61.42.51.51,0,0,0,.4-.3.52.52,0,0,0-.25-.42,18.08,18.08,0,0,0-7.64-2.35A10.3,10.3,0,0,0,65.48,98.82Z"/><path d="M122.57,88.65a13,13,0,0,0,1.42-.84c1.7-1.08,3.34-2.25,5.1-3.22,1.61-.9,2.93-2.18,4.46-3.18a3.17,3.17,0,0,0,.75-.8A10.53,10.53,0,0,1,135.77,79a2.38,2.38,0,0,0,.81-1.14c-1.91,1.38-3.87,2.69-5.67,4.23a8.1,8.1,0,0,1-.85.7c-2,1.33-4.08,2.66-6.13,4a67.47,67.47,0,0,1-8.5,4.67c-1.94.89-3.83,1.87-5.78,2.75a8.75,8.75,0,0,0-2,1.47,44.29,44.29,0,0,0,6.73-2.86C117.2,91.56,119.86,90.05,122.57,88.65Z"/><path d="M96.13,101c.46-.16.91-.35,1.37-.51,2-.71,3.79-1.94,6-2.25a2.8,2.8,0,0,0,.84-.34c.4-.19.58-.5.42-.66a.59.59,0,0,0-.66,0c-.22.11-.55.25-1.21.55-2.16.51-4.3,2.15-6.86,2.8a.23.23,0,0,0-.17.38A.32.32,0,0,0,96.13,101Z"/><path d="M111.27,102.18a6.41,6.41,0,0,0,3.21-.43c-2.71-2.55-10.9-3.45-13.5-1.52C105.44,101.85,106.13,102.12,111.27,102.18Z"/><path d="M71.46,95.1l-.09.13h.16c.17,0,.2-.12.09-.18S71.51,95.07,71.46,95.1Z"/><path d="M149,61.38c.15,1.56.47,1.79,1.72,1.26l1-.46a2,2,0,0,0,1-1,.71.71,0,0,0-.06-.84.66.66,0,0,0-.67-.14,5,5,0,0,0-2.36,1.29c-.2.21-.42.16-.58-.08Z"/><path d="M158.62,57.74a9.37,9.37,0,0,1,3-2.74c1.6-1,3.29-1.93,4-3.89a.31.31,0,0,1,.4-.17l.06,0a.41.41,0,0,1,.23.45,2.54,2.54,0,0,1-1,1.67A6.54,6.54,0,0,0,164,54.3a.83.83,0,0,0,.76.22,12.09,12.09,0,0,0,5.62-2A2.8,2.8,0,0,0,171.62,51a1.39,1.39,0,0,0-1-.06c-.79.43-1.72.45-2.31.89-.57,0,.31-1-.6-.52-.16.07-.41.24-.45.2-.24-.26,0-.41.19-.57s.28-.24.41-.37c.9-.89,1.81-1.79,2.71-2.7a.34.34,0,0,0,0-.48.65.65,0,0,0-.33-.11,2.14,2.14,0,0,0-1.57.81.31.31,0,0,1-.44,0l0,0a.38.38,0,0,1,0-.33,3.21,3.21,0,0,1,3.24-1.1.62.62,0,0,1,.39.74,1.83,1.83,0,0,1-.64,1.07A3.43,3.43,0,0,0,170,49.8a6.35,6.35,0,0,1,2.76-.74,1.45,1.45,0,0,0,1-.43c.81-.74,1.62-1.49,2.41-2.25a.42.42,0,0,0-.18-.72c-.63-.25-1.19-.28-1.59.4a.41.41,0,0,1-.27.15.87.87,0,0,1-.28-.42c0-.17.07-.36.07-.54a.81.81,0,0,0-.68-.92h-.16a1.27,1.27,0,0,0-1,.36c-.26.26-.49.54-.77.78a.57.57,0,0,1-.82,0c-.14-.12-.25-.28-.38-.39-.66-.56-1-.54-1.51.12-.82,1.07-1.62,2.15-2.41,3.23-.26.36-.6.52-.93.21-.93-.88-1.79-.46-2.65.1a4.26,4.26,0,0,0-1.27,1.3c-.45.7-.76,1.59-1.92,1.16a1,1,0,0,0-.59.35,4.8,4.8,0,0,0-.59,1.12,2.54,2.54,0,0,1-.92,1.33c-.47.3-.29.61-.08,1.07C157.66,56,158.17,56.83,158.62,57.74ZM159.75,53a2.14,2.14,0,0,1,.78-1.21,13.12,13.12,0,0,1,3-1.76.77.77,0,0,1,.52,0c.27.13.24.41.18.64a2.4,2.4,0,0,1-1.11,1.74h0c.08-.34.17-.68.23-1a.33.33,0,0,0-.29-.38.37.37,0,0,0-.18,0c-1.33.64-2.67,1.29-2.83,3,0,.08-.15.15-.3.29A1.93,1.93,0,0,1,159.75,53Z"/><path d="M169.31,54.75a2.44,2.44,0,0,0-.71-.1c-1.37.17-2.73.37-4.1.56a10,10,0,0,0,4.14.8,1,1,0,0,0,.9-.52.48.48,0,0,0-.1-.67Z"/><path d="M96.71,82.05a.9.9,0,0,0-.51-.1,1.11,1.11,0,0,0-.89,1.29,1,1,0,0,0,.14.38,13.18,13.18,0,0,0,1,1.11l.51-.54C97.75,83.35,97.68,82.65,96.71,82.05Z"/><path d="M152.7,59a.49.49,0,0,0,.34-.54v-1a1.6,1.6,0,0,0-.75.91c-.09.22-.14.46.11.62A.39.39,0,0,0,152.7,59Z"/><path d="M173,50.82a2.84,2.84,0,0,1-1.47,1.78c-.42.25-.85.5-1.25.76a.48.48,0,0,0-.21.65.41.41,0,0,0,.1.13c.64.77.52,1.16,1.76.77l.53-.14c1.76-.37,1.76-.37,1.48-2.14a.55.55,0,0,0-.07-.35c-.53-.56-.17-.83.33-1.08s.77-.38,1.14-.59.66-.43.59-.85.51-.78.52-1.51l-1.21.38A3,3,0,0,0,173,50.82Z"/><path d="M156,60a5.15,5.15,0,0,0,1.37-1.7c.21-.41.12-.64-.34-.83-.67-.28-.67-.27-.41-.93.08-.2.29-.41-.1-.66-.53.59-1,1.4-2,1.2-.11,0-.31.18-.4.32a1.81,1.81,0,0,0-.29,1.22,11,11,0,0,1-.43,2.67,1.64,1.64,0,0,0,.06.46C154.31,61.11,155.19,60.59,156,60Z"/><path d="M169.3,50.26a.8.8,0,0,0,.3-.06,3.64,3.64,0,0,0,.34-.34l-.43.19C169.43,50.09,169.37,50.19,169.3,50.26Z"/><path d="M44,115.63h0v.51c2.32-.46,5.59-1.14,8-1.42a3.21,3.21,0,0,0,.86-.28c.1,0,.17-.16.25-.24-.11,0-.22-.14-.32-.12C49.73,114.63,47.15,115.06,44,115.63Z"/><path d="M64.52,111.57l-.22.11h.41A.14.14,0,0,0,64.52,111.57Z"/><path d="M63.69,112a.24.24,0,0,0-.16.07c-.06.12,0,.14.19.07l.41-.11A2.27,2.27,0,0,1,63.69,112Z"/><path d="M59.47,112.66c-.49.17-1,.37-1.45.56a3.91,3.91,0,0,0,1.56-.07c.52-.07.94-.38.76-.51A.92.92,0,0,0,59.47,112.66Z"/><path d="M71.42,110.75c-2.11,0-4,.59-3.51.7a8.54,8.54,0,0,0,3.55-.4,3.79,3.79,0,0,0,.65-.21A4.08,4.08,0,0,0,71.42,110.75Z"/><path d="M87.35,108.28a12,12,0,0,0-3.07.82A3.72,3.72,0,0,0,87.35,108.28Z"/><path d="M74.63,110.49c3,.17,6.74-.34,8.15-1.22A30,30,0,0,0,74.63,110.49Z"/><path d="M74.22,110.45a.2.2,0,0,0-.15,0c0,.11,0,.15.16.1l.24-.09Z"/><path d="M166.88,57a8.1,8.1,0,0,0-5.77.38c-.23.14-.56.31-.86.51a.29.29,0,0,0,0,.41.25.25,0,0,0,.19.09c1.4,0,2.79,0,4.18-.13a17.51,17.51,0,0,0,2.16-.29c.29-.06.61-.19.62-.55S167.11,57.09,166.88,57Z"/><path d="M55.08,113.88a8,8,0,0,0,2.81-.64A3.94,3.94,0,0,0,55.08,113.88Z"/><polygon points="94.37 83.96 94.25 83.95 94.28 84.05 94.37 83.96"/><path d="M95.38,81.12c.64-.26,1.25-.49,1.88,0,.21.18.47.07.66-.1a1.82,1.82,0,0,1,1.19-.4,2,2,0,0,0,1.51-.92.41.41,0,0,0,.09-.34.35.35,0,0,0-.44-.2h0c-.69.24-1.36.53-2,.77-.15,0-.4.07-.4-.21a.37.37,0,0,1,.13-.27c1-.48,2-.93,3-1.41.81-.39,1.09-.94.69-1.77a2.63,2.63,0,0,1,0-2.29c.15-.37.5-.72.18-1.24-.34.11-.67.24-1,.38a6,6,0,0,0-.94.57c-.26.2-.43.47-.08.73a1,1,0,0,1,.53,1.08,2.79,2.79,0,0,1-.43,1c-.3.42-.52,1-1.12,1.09-.17-.32,0-.49.13-.69a8.88,8.88,0,0,0,.52-1c.07-.16.11-.39-.09-.48a.89.89,0,0,0-.51,0,1.47,1.47,0,0,0-.47.27c-1,.89-2,1.76-3,2.68a2.32,2.32,0,0,0-.5,2.39.38.38,0,0,0,.39.37Z"/><path d="M93.52,85.41a.38.38,0,0,0-.3-.11,38.13,38.13,0,0,0-7.11,2.89,15.78,15.78,0,0,0-3.85,2.49,8.25,8.25,0,0,0,3.44-1.3,29.35,29.35,0,0,1,5.56-2.75c.74-.27,1.46-.61,2.18-.94A.29.29,0,0,0,93.52,85.41Z"/><path d="M99.64,82.8c-.35,0-.59-.09-.56-.49.06-.21,0-.42-.19-.39s-.27.22-.39.34a.22.22,0,0,0,0,.17c-.11.89.17,1.84-.41,2.66v.18a2,2,0,0,0,1.87.76.35.35,0,0,0,.23-.44h0a3.39,3.39,0,0,0-.44-.56c-.29-.38-.24-.69.21-.85a.73.73,0,0,0,.48-.92s0,0,0-.08C100.3,82.78,100,82.78,99.64,82.8Z"/><path d="M92.3,100c.38.8.84.93,1.61.47a1.47,1.47,0,0,0,.74-.79c.56-1.6,1.25-3.18.86-5A4.48,4.48,0,0,1,95.36,93a10,10,0,0,0-.66-4.3c-.06-.23-.17-.49-.43-.54a.53.53,0,0,0-.55.39c-.32.73-.64,1.46-.9,2.2a25.66,25.66,0,0,1-.8,2.44c-1,2.16-.69,4.27.22,6.58C92.2,99.75,92.25,99.86,92.3,100Z"/><path d="M75.17,109.19a12.48,12.48,0,0,0,3.17-.9c2.81-1.19,5.56-2.52,8.48-3.46a9.84,9.84,0,0,0,2.26-1.21c.77-.51,1.8-.36,2.58-1.12-.2,0-.4,0-.6.08-3.24.91-6.36,2.17-9.53,3.28-1.67.59-3.25,1.42-5,1.92a4.1,4.1,0,0,0-1.6.87c-.13.12-.28.26-.14.44A.47.47,0,0,0,75.17,109.19Z"/><path d="M83.53,112.49a16,16,0,0,0-2.81-.77c-3.12-.66-6.19-.06-9.28.35l-.12.14c.16.5.62.53,1,.59,2.78.35,5.22,1.65,7.74,2.75a1.19,1.19,0,0,1,.62.61,2.6,2.6,0,0,1,1.64.61c.66.46,1.34.87,2,1.27q1.49-1.74,2.91-3.67A26.78,26.78,0,0,0,83.53,112.49Z"/><path d="M163.15,59l-2.9.22a1.82,1.82,0,0,1-1.83-.86,2.88,2.88,0,0,0-.84,1.33c.11.06.21.18.3.17a8.48,8.48,0,0,1,4.41.75,1.25,1.25,0,0,0,1.21-.17,1.55,1.55,0,0,0,.43-1.14C163.78,59,163.45,59,163.15,59Z"/><path d="M97.11,106.81c.13,0,.15-.16.06-.26a.36.36,0,0,0-.46,0c-.06,0-.06.16-.1.29A2.1,2.1,0,0,0,97.11,106.81Z"/><path d="M95.15,106.68h0Z"/><path d="M94.48,106.8l.42-.12h-.44a.2.2,0,0,0-.16.07C94.24,106.83,94.31,106.86,94.48,106.8Z"/><path d="M47.06,105l14.27-5.54c-2.88.31-11.74,3.66-14.38,5.19l-.08.35A.31.31,0,0,0,47.06,105Z"/><path d="M44.68,115a72.94,72.94,0,0,0,13-2.73,13.19,13.19,0,0,1,3.06-.55,23.47,23.47,0,0,0,5.74-1.14,3.45,3.45,0,0,1,.88-.27c1.81-.06,3.4-1,5.12-1.36a2.38,2.38,0,0,0,.68-.28c2.25-1.41,4.82-2.08,7.25-3.05,3.29-1.32,6.66-2.41,10-3.6l.35-.12c1-.37,1.09-.62.76-1.66-.25-.82-.49-1.64-.73-2.46A6.3,6.3,0,0,1,91,93.37a16.51,16.51,0,0,0,1-3,13.67,13.67,0,0,1,1.26-2.85.72.72,0,0,0,0-.5c-.1-.2-.32-.12-.49-.07a12.32,12.32,0,0,0-1.2.45,62.41,62.41,0,0,0-5.91,2.93,13.22,13.22,0,0,1-2.16,1c-2.41,1-4.81,2.11-7.23,3.14a29.51,29.51,0,0,1-5.53,1.94,6.11,6.11,0,0,0-2.18.88.32.32,0,0,0,.29.35h.06a19,19,0,0,1,7.79,2.5,13.16,13.16,0,0,0,2.7,1.09.34.34,0,0,1,.26.42h0c0,.15-.2.39-.32.39-2.73.12-5.43.8-8.21.46a37.39,37.39,0,0,1-5.75-1,11.51,11.51,0,0,0-7.38.21c-3.15,1.19-6.32,2.32-9.47,3.48-.23.08-.55.14-.65.31a1.27,1.27,0,0,1-1.21.86q-.72,3.24-1.43,6.5A16.67,16.67,0,0,0,44.68,115Z"/><path d="M80.68,116.18a1.78,1.78,0,0,1-1.19-.28l-3.74-1.52a15.39,15.39,0,0,0-2.81-.84c-1.13-.23-2.24-.58-3.37-.84a10.18,10.18,0,0,0-4.36.08c-2.81.6-5.63,1.13-8.45,1.68a7.17,7.17,0,0,0-.9.18,90.55,90.55,0,0,1-9.47,2.13,11.71,11.71,0,0,0-2.21.36,35.9,35.9,0,0,0-.65,3.68,15.58,15.58,0,0,1-2.22,6.41c-1.12,1.82-2.26,3.63-3.33,5.47a31.9,31.9,0,0,1-6.5,7.77,1.33,1.33,0,0,0-.46.72c-.19,2.81-.31,5.62-.5,8.42s-.49,5.53-.6,8.29c-.12,3.35-.39,6.71.33,10.05a2.47,2.47,0,0,0,1.85,2c3.06,1.07,8.22,1,11.37.86a7.69,7.69,0,0,0,2-.43,1,1,0,0,0,.61-.67,7.24,7.24,0,0,0,0-1.86c-.29-1.65-1.25-3.43-2.83-3.33-7.7.44-1.61-19.74-1.61-19.74a2.69,2.69,0,0,1,1.27-1.66c3.89-1.72,7.76-3.55,11.78-4.91A68.65,68.65,0,0,0,83.9,118.63c-.9-.55-1.78-1.13-2.63-1.76A3.91,3.91,0,0,1,80.68,116.18Z"/><path d="M108,109c-.72-.91-1.84-1.06-2.83-1.45a5.85,5.85,0,0,0-4.24-.1A12.21,12.21,0,0,0,108,109Z"/><path d="M162,61.74a.38.38,0,0,0-.2.26c0,.33.27.31.5.3.07-.09.19-.16.2-.26a.34.34,0,0,0-.34-.34A.42.42,0,0,0,162,61.74Z"/><path d="M146.1,95.81a1,1,0,0,0-.29-.1l-.06.27.28.09C146.06,96,146.13,95.84,146.1,95.81Z"/><path d="M105.51,72.83c.86-.59,2-1,2.38-2.11.07-.22.23-.47,0-.63s-.35,0-.52,0a1.08,1.08,0,0,0-.46.27c-.82,1.12-2.1,1.5-3.27,2.07a4.59,4.59,0,0,0-.41.36A2.68,2.68,0,0,0,105.51,72.83Z"/><path d="M146.41,101.15a.56.56,0,0,0,.63-.48.61.61,0,0,0,0-.19,1.36,1.36,0,0,0-.14-.33.49.49,0,0,1,.33-.71c.35-.11.72-.13,1.06-.25a.56.56,0,0,0,.32-.38c0-.18-.25-.25-.42-.21s-.57.23-.86.29a7.5,7.5,0,0,1-1.25.16.64.64,0,0,1-.44-.27.42.42,0,0,1,.09-.61l0,0c.14-.12.33-.2.42-.34a.62.62,0,0,0,0-.5,1.4,1.4,0,0,0-1.4-.63c-.44,0-.45.51-.55.85a4.21,4.21,0,0,1-.3.84c-.2.38-.07.7.1,1.12A3.43,3.43,0,0,0,146.41,101.15Z"/><path d="M106,81.33v-.2a2.46,2.46,0,0,0-.67.06c-.22.06-.35.15-.32.35s.24.22.4.14S105.84,81.45,106,81.33Z"/><path d="M103,76c.8.41.78.48.2,1.36a1,1,0,0,0-.18.31.4.4,0,0,0,0,.34.56.56,0,0,0,.32.15,1.79,1.79,0,0,0,1.16-.47A3.23,3.23,0,0,1,106,77c.26,0,.31.2.28.37a1.08,1.08,0,0,1-.61.87,6.78,6.78,0,0,1-2.38.88c-1.13,0-1.6.76-2.16,1.46-.36.45-.4.8.06,1.1.75.5.65,1.08.42,1.75-.09.23-.17.46-.27.68a1.65,1.65,0,0,0,.34,1.71.56.56,0,0,0,.65.24,21.12,21.12,0,0,1,3.06-.56,1.62,1.62,0,0,0,1.46-1.2c.22-1,1-1.29,1.82-1.65a.35.35,0,0,1,.29.12.38.38,0,0,1,0,.33c-.27.24-.58.44-.85.69a.38.38,0,0,0-.09.32c0,.09.16.22.24.22a10.83,10.83,0,0,0,1.27-.08c1.1-.16,1.1-.17.64-1.2a1.66,1.66,0,0,1,.33-1.69,8.77,8.77,0,0,1-1.76-.24c-.89-.29-1.37.3-1.91.75a.42.42,0,0,0,0,.49c.31.67,0,1.06-.56,1.33s-1.44.67-2.15,1c-.38.19-.72.44-1.09.63-.13.07-.24,0-.28-.17a.43.43,0,0,1,0-.16,1.08,1.08,0,0,1,.53-.72c.46-.29,1-.54,1.42-.82a.3.3,0,0,0,.06-.3.36.36,0,0,0-.29-.15c-.36.08-.7.2-1.06.31s-.58.33-.84.08,0-.53.19-.76a.67.67,0,0,0,.14-.68c-.19-.61.16-.91.64-1.14a7.22,7.22,0,0,1,3-.64c.31,0,.7,0,.73-.38.08-.83.68-1.11,1.3-1.38a.7.7,0,0,0,.49-.86A2.51,2.51,0,0,1,109,77c0-.82.23-1.08,1.07-1.16.42,0,.9.07,1.17-.34A4.72,4.72,0,0,1,113,74a.79.79,0,0,0,.49-.8,2,2,0,0,0-1.67.4c-.36.33-.75.62-1.14.92a1.06,1.06,0,0,1-1.48,0c-.23-.2-.38-.48-.6-.68s-.35-.26-.48-.21c-.57.18-1.29,0-1.69.51s-.8.38-1.21,0a2.2,2.2,0,0,0-1.74-.39A1.31,1.31,0,0,0,102.24,75C102.08,75.52,102.48,75.73,103,76Z"/><path d="M110.94,70s-.2-.12-.23-.1a.35.35,0,0,0,0,.4C110.83,70.23,111,70.15,110.94,70Z"/><path d="M108.82,72.48c.26-.32.13-.66,0-1-.1-.12-.23-.14-.31,0s-.42.6-.14,1a.28.28,0,0,0,.39.06Z"/><path d="M118.66,69.37c0,.28.36.28.6.21s.74-.21.79-.61-.3-.49-.55-.65a2,2,0,0,0-2.14-.26C117.83,68.46,118.55,68.58,118.66,69.37Z"/><path d="M109.88,72.58a.59.59,0,0,0,.67-.07c.33-.2.59-.47.3-.86a1.76,1.76,0,0,1-.21-1.31A2.77,2.77,0,0,0,109.7,72,.53.53,0,0,0,109.88,72.58Z"/><path d="M135.65,103a1.44,1.44,0,0,0,1-.1A1.44,1.44,0,0,0,135.65,103Z"/><path d="M136.45,103.83a2.37,2.37,0,0,0-1.55.23c.14.51-.17.88-.37,1.3a.57.57,0,0,0,.38.7h0c.3.1.45,0,.45-.35a1,1,0,0,1,.5-.9,6,6,0,0,0,.75-.49.36.36,0,0,0,.08-.3A.4.4,0,0,0,136.45,103.83Z"/><path d="M134.44,103.05a1.41,1.41,0,0,0,1.1-.12A1.17,1.17,0,0,0,134.44,103.05Z"/><path d="M149.74,97.61c.9-.13,1.8-.34,2.69-.53.23,0,.52-.14.44-.45,0-.12-.26-.24-.41-.28a3.77,3.77,0,0,0-2,0,3.05,3.05,0,0,1-2,.11,1.07,1.07,0,0,0-1,.3c-.08.07-.09.2-.14.31s0,.15.08.16A5.34,5.34,0,0,0,149.74,97.61Z"/><path d="M167.33,102.62a1.11,1.11,0,0,1-.84,0,2.63,2.63,0,0,1-1.56.27,1.81,1.81,0,0,0-1.23.17,17,17,0,0,1-4.78,1.38,2.79,2.79,0,0,0,2.87.38,3.94,3.94,0,0,1,.69-.21l6.32-1c.27,0,.62,0,.74-.49l-2.24-.54Z"/><path d="M162.16,101c.58.16,1.19.26,1.76.45a2.59,2.59,0,0,0,2-.28,3.38,3.38,0,0,0,.41-.24,1,1,0,0,0,.41-1.28c-.19-.41-.58-.37-1-.34a1,1,0,0,0-1.09.75c-.24.72-.36.73-1,.31a1.35,1.35,0,0,0-1.52-.17.72.72,0,0,0-.33.4.35.35,0,0,0,.3.4Z"/><path d="M152.39,98.5c-.36,0-.73.1-1.09.11a1.77,1.77,0,0,0-1.56.74,1.8,1.8,0,0,1-.83.69,1.15,1.15,0,0,0-.64.62,2.28,2.28,0,0,1-1.8,1.61c-.23,0-.27.53-.06.61a4.85,4.85,0,0,0,2.75.69,5.27,5.27,0,0,1-.68-.57.73.73,0,0,1,.24-1.3,5.14,5.14,0,0,1,1.22-.34c.54-.09,1.1-.11,1.64-.15.72,0,.71,0,1-.94a.65.65,0,0,1,.33-.38c.33-.15.69-.23,1-.35s.32-.19.27-.4a.53.53,0,0,0-.22-.27A2.87,2.87,0,0,0,152.39,98.5Z"/><path d="M166.49,102.58a1.22,1.22,0,0,1,.8,0,3.05,3.05,0,0,1,2-.11,11.8,11.8,0,0,0,1.44.18,1,1,0,0,0,1-.67,1.05,1.05,0,0,0-.56-1,3,3,0,0,0-3.27-.07c-.51.32-1,.63-1.54,1S166,102.12,166.49,102.58Z"/><path d="M162.23,102.1a.41.41,0,0,0-.29-.18,3.51,3.51,0,0,0-2.39.76c.87.08,1.5.16,2.14.18.15,0,.31-.17.44-.29A.35.35,0,0,0,162.23,102.1Z"/><path d="M113,75.44a.72.72,0,0,0-.67.2c-.25.25,0,.42.15.57a4.66,4.66,0,0,0,.58.45.78.78,0,0,0,1.1-.08.74.74,0,0,0,.13-.21C113.72,76.19,113.54,75.54,113,75.44Z"/><path d="M142.84,73.06a.75.75,0,0,0-.07.12l.13-.15Z"/><path d="M141.11,74.53c.14-.07.17-.14.06-.18s-.1,0-.13.09l-.15.21Z"/><path d="M132.12,104a.59.59,0,0,0,.33-.13c.05,0,.1-.1.09-.14s0-.28-.11-.3a3.83,3.83,0,0,0-.89-.13c-1.16,0-2.33.1-3.48,0a14.74,14.74,0,0,0-4.13.44C126.65,104.27,129.39,104,132.12,104Z"/><path d="M137.2,77.51c.15-.07.18-.14.05-.21s-.11,0-.15.06l-.42.41Z"/><path d="M140.82,74.71a6.89,6.89,0,0,0-2.15,1.68C139.73,76,140.55,75.71,140.82,74.71Z"/><path d="M150.41,66a1.92,1.92,0,0,0,1.08-.92,1.63,1.63,0,0,1,.78-.73c.16-.49.68-.63,1-1,.1-.12.1-.24,0-.32a.57.57,0,0,0-.33-.11,1.62,1.62,0,0,0-1,.69c-.21.23-.24.71-.74.59,0-.24,0-.57-.11-.67-.28-.23-.57,0-.8.2a.84.84,0,0,0-.27.45c-.08.48-.12,1-.16,1.45S150.06,66.09,150.41,66Z"/><path d="M146.46,70.15c.13-.09.09-.22-.14-.29A11,11,0,0,0,143,73C144.41,72.29,145.3,71.05,146.46,70.15Z"/><path d="M148.1,68.82s-.09-.08-.12-.07l-.28.19.12.08Z"/><path d="M158.74,104.68h-.64A1.16,1.16,0,0,0,158.74,104.68Z"/><path d="M141.41,98.05a2.16,2.16,0,0,0,.36,0,1.86,1.86,0,0,0,1.74-1.31.4.4,0,0,0-.27-.49l-.07,0a6,6,0,0,0-2.16.59c-.31.32-1,.27-1.21.85C140.21,98.36,140.87,98,141.41,98.05Z"/><path d="M116.79,69.1a2.77,2.77,0,0,0-2.13.21,1.24,1.24,0,0,0-.62,1.23c0,.4-.34.44-.61.54-.05.23-.11.45-.15.68-.08.43,0,.58.4.54s.78-.1.88-.51a2.8,2.8,0,0,1,1.7-1.79,2,2,0,0,0,.56-.45C117,69.41,117,69.17,116.79,69.1Z"/><path d="M142.73,100.69c-.16.89-1.15,1.07-1.34,1.92a.72.72,0,0,1-.38.35c-.32.13-.81.1-.68.63s.52.49.87.59a6,6,0,0,0,.72.11c.61,0,.76-.08.93-.81s.2-.77.91-.8h.73a.62.62,0,0,0,.59-.36.51.51,0,0,0-.27-.61A7.45,7.45,0,0,0,142.73,100.69Z"/><path d="M112.69,70a.5.5,0,0,0-.6.29c-.09.33.2.35.44.36h.87C113.26,70.39,113.11,70.06,112.69,70Z"/><path d="M113.82,74.5c.09.35.17.61.23.87s.15.66.22,1a8,8,0,0,1,.8-.34c.59-.17.7-.55.53-1.07C114.71,75.08,114.69,75.08,113.82,74.5Z"/><path d="M134.41,102.65h0a1.73,1.73,0,0,1,1.27-.89c.84-.12,1.66-.3,2.5-.44.18,0,.4,0,.39.25a.52.52,0,0,1-.28.4,13.6,13.6,0,0,1-1.51.43c.59.45,1.49.56,1.65,1.52,0,.12.27.22.42.31.55.39,1.09.8,1.64,1.17.31.22.6.45.46.89a1.08,1.08,0,0,1-1,.72c-.36,0-.49-.3-.61-.58a8.09,8.09,0,0,0-.42-1,.78.78,0,0,0-1-.41.76.76,0,0,0-.4.41c-.21.42-.75.67-.69,1.25a4.27,4.27,0,0,0,2.86,1h1.28a6.34,6.34,0,0,1,2.7.29,14.4,14.4,0,0,0,5.61.6,3.28,3.28,0,0,0,2.57-1.2.63.63,0,0,1,.86-.26l.08,0a1.65,1.65,0,0,0,1.75-.05c.27-.15.28-.37,0-.56s-.68-.29-.46-.62.35-.57-.23-.64a5.05,5.05,0,0,0-2.29.52.34.34,0,1,1-.34-.6h0a4.43,4.43,0,0,1,5,0,2.05,2.05,0,0,0,1.67.54c.34,0,.91.09,1-.3.09-.61-.55-.47-.91-.6s-.6-.15-.88-.27a.76.76,0,0,1-.47-.7,1.38,1.38,0,0,1,.49-1.47c.33-.25.61-.59.94-.85s.37-.34.2-.59a.84.84,0,0,0-.45-.27c-.4-.09-.84.24-1.22-.12.22-.6.82-.29,1.21-.48a18.47,18.47,0,0,1,3.81-1.38c-.9-.88-.88-.84-1.69-.48-1.05.48-2.12.9-3.19,1.32a.45.45,0,0,1-.28-.16.4.4,0,0,1,0-.34c.25-.47.76-.59,1.18-.82.15-.08.35-.2.24-.39a.59.59,0,0,0-.46-.21,6.73,6.73,0,0,0-1.1,0c-.91.09-.93.09-1,1.17a1.55,1.55,0,0,1-.57.89c-.21.24-.14.44.1.6a2.65,2.65,0,0,1,.59.42.65.65,0,0,1,0,.51.55.55,0,0,1-.57.37.77.77,0,0,1-.46-.22c-.16-.19-.27-.37-.57-.3l-3.15.7a5.92,5.92,0,0,0,1.92.23,4.88,4.88,0,0,1,1.06.22.52.52,0,0,1,.35.58.59.59,0,0,1-.32.39c-.82.24-1.65.45-2.48.63-.59.12-1,.34-1.11,1a1,1,0,0,1-.54.69,3,3,0,0,1-2.46.31.39.39,0,0,1-.2-.27.32.32,0,0,1,.19-.27c.47-.1.95-.16,1.42-.26a.41.41,0,0,0,.25-.23c.06-.21-.11-.32-.29-.35a4.45,4.45,0,0,1-2.64-1.11c-.23-.26-.55-.18-.86-.12a1.57,1.57,0,0,0-1.16.8,1.24,1.24,0,0,1-1,.72,4.68,4.68,0,0,1-2.65-.53,1.42,1.42,0,0,1-.79-1.84,1.19,1.19,0,0,1,.08-.16c.07-.23.19-.45.26-.69.4-1.39.4-1.39-1.16-1.5-.11,0-.2-.11-.3-.16.21-.39.59-.36.95-.4.91-.1,1.82-.19,2.73-.31.15,0,.28-.2.42-.31-.12-.12-.21-.34-.35-.36-1.89-.37-3.77-.62-5.15,1.23-.36.48-.8.91-1.19,1.37s-.55.48-1,0c-.16-.18-.24-.42-.54-.35a1,1,0,0,0-.67,1C133.46,102.3,133.76,102.57,134.41,102.65ZM142,106a6.42,6.42,0,0,1,2.47-.27.4.4,0,0,1,.27.21c.4,1.34,1.42,1.22,2.45,1.07l1.44-.19a.37.37,0,0,1,.28.17c.09.2-.06.32-.23.39-.78.35-1.68.2-2.45.65a.87.87,0,0,1-.68-.11c-1.08-.41-2.15-.82-3.22-1.25a2.08,2.08,0,0,1-.4-.32c0-.1,0-.3.07-.31Z"/><path d="M151.71,66.61a5.78,5.78,0,0,0-.12.57l.45-.39v-.15A.93.93,0,0,0,151.71,66.61Z"/><path d="M160.37,62.8a1.86,1.86,0,0,0-1.27.58.64.64,0,0,0-.13.48.47.47,0,0,0,.55.34,2.74,2.74,0,0,0,.59-.14,3.18,3.18,0,0,0,.65-.51.53.53,0,0,0,0-.49A.56.56,0,0,0,160.37,62.8Z"/><path d="M117.17,67.68h0Z"/><path d="M160.91,61.4c.25-.17.12-.64-.19-.73a7.12,7.12,0,0,0-4.14.16,2.66,2.66,0,0,0-.9.61c-.44.41-1,.88-.73,1.51.22.48.88.22,1.36.24s.73,0,1.09,0a2.79,2.79,0,0,0,1.41-.36C159.31,62.51,160.12,62,160.91,61.4Z"/><path d="M183.69,115.78c4.19-2.88,8.34-5.84,12.32-9a31.63,31.63,0,0,0,9.29-12.41,40.16,40.16,0,0,0,3-15.46c.15-7,0-13.92,1-20.84.13-.89.3-1.77.48-2.64.13-.63.27-1.27.43-1.89a44.33,44.33,0,0,1,5-12c1.39-2.32,2.78-4.72,5.49-5.66,4-1.39,8.1-2.54,12.14-3.83a55.13,55.13,0,0,0,6-2.06c1.27-.56,1.84-1.85,2-3.47-.71.38-1.23.63-1.71.94a5.13,5.13,0,0,1-4.41.89,2.82,2.82,0,0,0-1.6.14c-2.45.82-4.86,1.79-7.35,2.5a16.53,16.53,0,0,1-4.48.56,2.78,2.78,0,0,1-2.63-1.81,2.5,2.5,0,0,1,.26-2.13c2.36-2.73,5-5.23,8.72-5.88s6.6-2.41,9.53-4.4a6.24,6.24,0,0,0,1.28-1.18,17.49,17.49,0,0,0,3.25-7,22.74,22.74,0,0,0,.3-2.6c-3.37.1-3.37.1-4.06-.74C239,4.37,240.6,5.35,242,5c-.08-.34-.18-.64-.23-.94-.3-1.65-.31-1.72-1.94-1.54-3.75.4-7.49.9-11.24,1.32-2.52.29-5.12.28-7.08-1.51C218.9-.11,215.9-.24,212.75.19a49.31,49.31,0,0,0-11.91,3.4,18.17,18.17,0,0,0-9.66,9c-2.06,4-4.1,8-6.41,11.86a48.36,48.36,0,0,1-8,10.44,59.67,59.67,0,0,1-15.42,10.4c-13.49,6.49-27.89,9.9-42.53,12.44-6.42,1.12-12.89,2-19.34,2.87-5,.68-10,1.27-14.93,1.85s-9.9,1.12-14.85,1.65c-4.68.5-9.36,1-14,1.41-5.07.41-10.14.87-15.21.9-8.3,0-16.6-.22-24.9-.45-2.53-.06-5-.41-7.58-.64a15.82,15.82,0,0,0-8,1.15,6.84,6.84,0,0,0,2.71,4.1,58.43,58.43,0,0,0,6.66,4c4.75,2.44,10,3.45,15.11,4.79a56,56,0,0,0,20,1.83,29.87,29.87,0,0,0,10.41-2.68,5.26,5.26,0,0,1,1.79-.38c.26,0,.73.16.78.34a1.47,1.47,0,0,1-.21,1,2,2,0,0,1-.58.58A19.4,19.4,0,0,0,50,90.77L47,104c.29-.08.34-.18.65-.39,2.22-1.48,4.82-2.08,7.23-3.1,1-.43,2.07-.76,3.11-1.14,1.55-.55,3.08-1.16,4.66-1.65a6.91,6.91,0,0,0,2.75-2A1.93,1.93,0,0,0,66,94.37c0-.61.06-1.23,0-1.83a8.73,8.73,0,0,1,1.89-6.35,33,33,0,0,1,4.49-5.32,11.09,11.09,0,0,0,2.22-3.12c.34-.58.68-1.16,1-1.73a.58.58,0,0,1,.61-.3.54.54,0,0,1,.38.57,11.64,11.64,0,0,1-.18,3.28c-.44,1.53-.87,3.06-1.36,4.57A14.39,14.39,0,0,0,74.44,87,21.89,21.89,0,0,1,74,89.52a7.19,7.19,0,0,1-2.33,4.07c-.17.14-.4.26-.35.56a.68.68,0,0,0,.7,0c1.9-.68,3.81-1.34,5.69-2.06,2.08-.78,3.82-2.18,5.74-3.26A41.73,41.73,0,0,1,90,85.64a7,7,0,0,0,2.27-1.18,3.18,3.18,0,0,0,1.23-1.92,13,13,0,0,0,.56-3.22,1.8,1.8,0,0,1,.5-1.37c.88-.93.89-2.46,2.21-3.07a2.23,2.23,0,0,0,.76-.5,10,10,0,0,1,5.09-2.71A5.57,5.57,0,0,0,105.76,70a2.18,2.18,0,0,1,1.4-.8,30,30,0,0,1,5.27-.47,3.65,3.65,0,0,0,2.42-.63,7,7,0,0,1,3.29-1,1.91,1.91,0,0,1,1.24.24l.47.28c1.81,1,1.82,1.07,3.79.71a9.49,9.49,0,0,1,3.1,0,3.08,3.08,0,0,1,1.93,1,.62.62,0,0,1,.15.77,4,4,0,0,0-2.56-1.19,3.51,3.51,0,0,0-.72.07.44.44,0,0,0-.34.38.41.41,0,0,0,.28.42c.42.19,1-.08,1.33.41-.22.43-.62.31-1,.36a14.89,14.89,0,0,0-1.63.24.9.9,0,0,1-1.21-.39,1.34,1.34,0,0,1-.07-.18,1.87,1.87,0,0,0-2.46-.31.67.67,0,0,0-.2.48c0,.42.23.84,0,1.26a.74.74,0,0,1-.35.37c-.2.06-.32-.12-.36-.31a1.13,1.13,0,0,1,0-.37c-.13-.42-.56-.59-.81-.3s-.49.7-.74,1a.62.62,0,0,1-.83.29,1.09,1.09,0,0,1-.17-.13c-.25-.17-.45-.41-.71-.57a.51.51,0,0,0-.67.1.6.6,0,0,0,0,.68.39.39,0,0,0,.2.3c1.15.56.92,1.58.84,2.53,0,.3-.26.58-.26.87a1.09,1.09,0,0,1-.82,1.08,1.29,1.29,0,0,0-1,1.31c0,.58-.6.76-1.07.38a3.31,3.31,0,0,1-.78-.76c-.33-.46-.63-.68-1.22-.4s-.74-.27-1.07-.51a.48.48,0,0,0-.33-.1c-.21.06-.24.25-.21.44s.09.35.13.53a.65.65,0,0,1-.34.77c-.1.06-.23.09-.33.16-.37.26-1.07.26-.94.92s.69.42,1.08.51c.55.12.72.58,1,1a1.41,1.41,0,0,1,1-.76.61.61,0,0,1,.62.3c.12.19,0,.35-.12.48a4.22,4.22,0,0,0-.56.47.61.61,0,0,0-.11.5.51.51,0,0,0,.42.27c1.15,0,1.53-.23,2-1.4.09-.22.11-.53.42-.51s.47.32.5.65a.54.54,0,0,0,0,.18c0,.28.18.49.46.37a12.4,12.4,0,0,1,2.81-.81,1.89,1.89,0,0,0,1.43-1A2.4,2.4,0,0,1,120.92,79c.53-.16,1-.35,1.56-.54a4.66,4.66,0,0,0,1.82-1.21c.51-.57.52-.73,0-1.54-.33-.52-.3-.77.19-1s1.11-.52,1.64-.82a9.45,9.45,0,0,0,2.76-2.1.48.48,0,0,1,.63-.2c.21.11.23.56,0,.81a4.31,4.31,0,0,1-.78.76c-.76.52-1.53,1-2.32,1.48-.49.3-.85.55-.78,1.27a2.73,2.73,0,0,1-1.74,2.77c-.71.35-1.47.6-2.2.91a2.8,2.8,0,0,0-1.88,1.4,1.14,1.14,0,0,1-1.12.8,12,12,0,0,0-4.7,1.56,13,13,0,0,1-5.17,1.75,1.94,1.94,0,0,0-.54.13,22.82,22.82,0,0,1-4.91,1.43c-1.13.25-2.25.55-3.38.82a1.41,1.41,0,0,1-1.35-.39,4.18,4.18,0,0,0-2.54-.92c-.74-.07-1,.15-.92,1a7.3,7.3,0,0,0,.31,1.8A8.88,8.88,0,0,1,96.07,93a1.69,1.69,0,0,0,0,.55,9.7,9.7,0,0,1-.23,5.07c-.19.59.21.93.84.74a6.55,6.55,0,0,0,1.7-.67,12.81,12.81,0,0,1,2.68-1.17,22.1,22.1,0,0,0,3-1.3A10.14,10.14,0,0,1,107.55,95a2.23,2.23,0,0,0,1.13-.58,27.28,27.28,0,0,1,5.41-3.08c2.25-1,4.33-2.26,6.51-3.38a54.35,54.35,0,0,0,5.4-3.2A65.52,65.52,0,0,0,132.53,80c.61-.51,1.3-.92,1.94-1.39,2.06-1.53,4.12-3,6.16-4.61a22,22,0,0,0,2.05-1.82,42.67,42.67,0,0,1,3.68-3.3A3.31,3.31,0,0,0,148,66.39c.68-.5.63-1.18.62-2a5.16,5.16,0,0,0-.25-2c-.52-1.41-.21-2.49,1.16-3a4.38,4.38,0,0,0,2.73-2.68c.12-.33.47-.56.66-.88.37-.62.77-1.06,1.61-.88a1.1,1.1,0,0,0,1.22-.62,3.42,3.42,0,0,1,1.07-1.23,2.71,2.71,0,0,0,.86-1.38,2.28,2.28,0,0,1,1.72-1.5,2.07,2.07,0,0,0,1.32-.89,8.41,8.41,0,0,1,1.89-1.73,2.59,2.59,0,0,1,2.43-.43,1,1,0,0,0,1.41-.47c.43-.59.87-1.17,1.28-1.78.83-1.21,1.2-1.39,2.59-.88a1.17,1.17,0,0,0,1.33-.2,2,2,0,0,1,2.67-.08,3.06,3.06,0,0,0,.63.37.57.57,0,0,0,.79-.16v0c.2-.31.34-.65.57-.94a1.73,1.73,0,0,1,2-.51.86.86,0,0,1,.66,1c-.54.09-1-.48-1.55-.23-.36.15-.56.56-.28.84s.59.44.58.87a1.63,1.63,0,0,1-.53,1.14,9.57,9.57,0,0,0-.77.79c-.17.21-.15.5.19.51,1,0,1.11.54,1,1.35a.58.58,0,0,0,.38.73h0a2,2,0,0,0,1.55-.8.5.5,0,0,0,0-.34c-.23-.55-.78-1-.63-1.67s.2-1.07.31-1.65c.48.37,1.06.62.85,1.41-.17.61.21,1,.52,1.49a.79.79,0,0,1,0,1.12.67.67,0,0,1-.19.14,12.19,12.19,0,0,1-1.22.8c-.93.59-1.87,1.16-2.79,1.77a1.43,1.43,0,0,0-.77,1.37c.21,1.4-.85,1.76-1.77,2.21a4.43,4.43,0,0,1-1.07.22,11.65,11.65,0,0,0-2.92,1.08,1.6,1.6,0,0,0-.72.53,4.2,4.2,0,0,1-2.37,1.63,1.71,1.71,0,0,0-1.22,1.23c-.15.68-.79.89-1.39,1a.83.83,0,0,0-.73.9,1.31,1.31,0,0,1-.62,1,12.84,12.84,0,0,1-4,2.26,2.71,2.71,0,0,1-.89.18.51.51,0,0,1-.43-.2c-.1-.18.08-.32.22-.43s.31-.26.22-.45-.39-.19-.63-.14a3.42,3.42,0,0,0-.34.11,1.61,1.61,0,0,1-.31,0c-.23-1.47-1.35-.61-2-.71a4.16,4.16,0,0,0-2.46.57.48.48,0,0,1-.08.32c-.14.68-.09.85.38,1,.29.08.59.11.88.17s.56,0,.68.2c.6.81,1.33.63,2.1.35.14,0,.23.06.23.21a.48.48,0,0,1,0,.17.22.22,0,0,1-.1.13,5.11,5.11,0,0,1-4.28.41h0a7.28,7.28,0,0,0-2.33,1.4c-2.48,2.14-5.1,4.14-7.53,6.34a38.84,38.84,0,0,1-3.78,2.84A15.11,15.11,0,0,0,135,81.38c.12.4.48.33.75.33a16.06,16.06,0,0,0,2.19-.1,47,47,0,0,1,7.31.18,3.15,3.15,0,0,1,1.86.53h0a6.91,6.91,0,0,1,2.68-.07,6.39,6.39,0,0,1,2.18.13c.17.07.34.17.29.38A.36.36,0,0,1,152,83a6,6,0,0,1-1,.3,70.48,70.48,0,0,0-10.14,3.07,8.68,8.68,0,0,1-4.31.53c-1.44-.21-2.88-.48-4.32-.75a3.49,3.49,0,0,1-.77-.48h-.13a3,3,0,0,1-.42.06c-.08,0-.16-.08-.25-.13.09,0,.19-.11.27-.09a2,2,0,0,1,.4.16h.13a13.19,13.19,0,0,1,3.55.24,13.24,13.24,0,0,0,3.08.15,7.91,7.91,0,0,0,1.88-.28c1.82-.66,3.69-1.16,5.55-1.7.86-.26,1.69-.62,2.53-1,0-.63-.67-.43-.82-.78h0a2.8,2.8,0,0,1-1.74.13,52.83,52.83,0,0,0-10.06.13A9.18,9.18,0,0,0,131.72,84c-1.86,1.1-3.71,2.21-5.58,3.3-1.56,1-3.13,1.81-4.72,2.67-1,.55-2.06,1-3.1,1.5l-6.27,2.85a21.29,21.29,0,0,1-4,1.68,4.14,4.14,0,0,0-2.34,1.53,5.46,5.46,0,0,0,.69.1,16.63,16.63,0,0,1,4.15.59,13.09,13.09,0,0,1,2.45.91,21.67,21.67,0,0,0,4.78,1.73,1,1,0,0,1,.49.21.7.7,0,0,1,.17.45.32.32,0,0,1-.22.23,11.72,11.72,0,0,1-1.45.18c-1.77,0-3.54.09-5.31.11a23.17,23.17,0,0,1-8.63-1.23,7.85,7.85,0,0,0-5.89-.07c-.5.2-1.07.28-1.55.52a19.73,19.73,0,0,1-4.31,1.46,7,7,0,0,0-1.84.75,15.3,15.3,0,0,1-3.33,1.35,35.12,35.12,0,0,0-5.32,2.17c.15.38.42.32.65.32a13.85,13.85,0,0,0,3.63-.46,49,49,0,0,1,5.38-1c2.11-.35,4.19-.81,6.27-1.26a28.33,28.33,0,0,1,5.28-.47,1.48,1.48,0,0,1,.6.28h0a3.76,3.76,0,0,1,1.44-.61,42.7,42.7,0,0,1,9.16-1.08c.6,0,1.21-.07,1.81-.09a2.06,2.06,0,0,1,1.2.11h.06c.31.9.66.85,1,1h.06c-.32,0-1-1-1-1h-.07a3.8,3.8,0,0,1-3.53,1.65,36.47,36.47,0,0,0-7.06.81,6.81,6.81,0,0,1-3,.36h0a16.3,16.3,0,0,1-3.18.56c-.17,0-.35.11-.29.34a.43.43,0,0,0,.28.18,1,1,0,0,0,.55,0c2.31-.56,4.7-.57,7-.93a80.14,80.14,0,0,1,8.88-1c2.06-.12,4.12-.37,6.18-.57a1.49,1.49,0,0,0,.36,0c.58-.12.23-.35.23-.35h-.06c-1,0-2,0-3,0h-.07c-.08-.18-.16-.14-.25-.11a.75.75,0,0,1-.26,0c.08,0,.15-.14.23-.15s.19,0,.28.31h.06c1-.57,3,0,3,0h.07a4.55,4.55,0,0,1,2.87-.77,44.28,44.28,0,0,1,6.18-.7,1.1,1.1,0,0,0,1.07-.58,2.37,2.37,0,0,1,2.4-1.33.88.88,0,0,0,1-.68,1.68,1.68,0,0,1,1-1,3.89,3.89,0,0,0,.78-.48c3.19-2.73,7-3.23,11-3.19,1.14,0,2.27.21,3.43.18a3.85,3.85,0,0,1,3.19,1,1.23,1.23,0,0,0,1,.31,12.87,12.87,0,0,1,5.15,1.13,5.36,5.36,0,0,0,2.5.43c.61,0,1.23,0,1.84,0a4.2,4.2,0,0,1,1.93.5,13.35,13.35,0,0,0,3.61,1.68,1.91,1.91,0,0,1,.77.47,1.49,1.49,0,0,1,.35,1.83,4.17,4.17,0,0,1-1.87,1.68,20.32,20.32,0,0,1-5.37.52h-1.1a6.92,6.92,0,0,0-1,1.17,1.5,1.5,0,0,1-1.16.81,13.19,13.19,0,0,1-4,.6,3.17,3.17,0,0,0-2.09.51,1,1,0,0,1-.33.16c-1.94.52-3.85,1.16-5.82,1.5a11.82,11.82,0,0,1-5.25-.42,13.94,13.94,0,0,0-4.37-.24,4.22,4.22,0,0,1-2.28-.51,7.32,7.32,0,0,0-2.7-1.09,1.21,1.21,0,0,1-.91-.82,2.73,2.73,0,0,0-3-1.58c-.66.06-1.34-.09-2-.09a16.25,16.25,0,0,1-4.18-.18,3.93,3.93,0,0,0-1.45,0c-3.51.5-7,.78-10.56,1.13-2,.2-4,.47-6,.72a.67.67,0,0,0-.78.51c.62.33,1.24.69,1.88,1s1.31.65,2,1a6.29,6.29,0,0,1,1.86,1.15c.17.18.31.4.15.65a.36.36,0,0,1-.49.1c-2.28-1-4.79-.93-7.16-1.52a19.78,19.78,0,0,1-4.57-1.39,3.09,3.09,0,0,0-1.77-.29,56.07,56.07,0,0,0-9,1.45c-2.52.62-5.08,1.14-7.55,2a36.19,36.19,0,0,1,4.17,1.66,16.82,16.82,0,0,1,2,1.09c.79-1.11,1.56-2.25,2.3-3.45A176,176,0,0,0,116,119.08l2.48.61c9.08,2.15,19.16,3.64,28.38,3a48.65,48.65,0,0,0,5.77-.73l.29-.06a37.65,37.65,0,0,0,5.8-1.57,16.37,16.37,0,0,1-.59-3.27,1.24,1.24,0,0,1,.06-.47,1.4,1.4,0,0,1,.86-.9,2.07,2.07,0,0,1,1.18-.1c.75.26.73.64.91,1.89l3.38,43c.29,1.86.65,6.06,1.81,7.35,1.94,2.19,8.7,3.06,11,2.88a40.85,40.85,0,0,0,6.06-.09c.17,0,.41-.3.5-.5a4.23,4.23,0,0,0-1.76-5.73,3.33,3.33,0,0,0-.61-.27c-1.22-.42-2.46-.79-3.72-1.09-.11-2.47-.32-4.93-.31-7.39,0-5.08.07-10.17.24-15.26.09-2.59.43-5.19.75-7.77.39-3.2.88-6.38,1.35-9.57a17.39,17.39,0,0,1,.54-2.48A8.28,8.28,0,0,1,183.69,115.78Zm-63-38.1a2.21,2.21,0,0,1-.86.65,28.53,28.53,0,0,1-4.15,1.3.35.35,0,0,1-.43-.23.43.43,0,0,1,.21-.26c.69-.22,1.4-.41,2.08-.64a4.52,4.52,0,0,0,1.93-1c-.62-.42-1.1,0-1.61,0a.32.32,0,0,1-.4-.21v0a.42.42,0,0,1,.19-.47,3.07,3.07,0,0,1,2.78-.24.72.72,0,0,1,.34,1,.94.94,0,0,1-.12.18Zm.48-4a10.25,10.25,0,0,1-.72,1.24.6.6,0,0,1-.59.34c-.45-.1-.29-.43-.25-.72a1.19,1.19,0,0,0,0-.53c-.29-.85.37-1.2.86-1.6.2-.17.44,0,.61.22a1.12,1.12,0,0,1,0,1.05Zm4.14-1a8.6,8.6,0,0,0-2.21,2h-.45a.35.35,0,0,1-.16-.46h0a1.63,1.63,0,0,0,.28-1.7.52.52,0,0,1,.27-.67,2.86,2.86,0,0,1,1.93-.2c.38.11.63.81.29,1ZM217.74,3.9c.47,1.15.82,2,1.15,2.78h1.79c-1.79,2.19-4.24,1.48-6.14,2.24C215.55,7.34,216.55,5.75,217.74,3.9ZM193.83,20.07c1.61.92,3.15,2,4.67,3.06a14.11,14.11,0,0,0,9.75,2.37,2.62,2.62,0,0,0,2.47-2.75,2.57,2.57,0,0,0-.18-.82c-.73-2.2-1.72-4.31-2.57-6.47-.61-1.54-1.24-3.09-1.72-4.67a7.46,7.46,0,0,1,0-2.11h.38c.48,1.33.85,2.71,1.45,4,1.16,2.44,2.49,4.81,3.69,7.24A17.69,17.69,0,0,1,213,23a4.39,4.39,0,0,1-.54,3.72,4.34,4.34,0,0,1-3.27,1.88c-3.54.48-6.8-.57-9.89-2a44.47,44.47,0,0,1-6.3-3.92,4.16,4.16,0,0,1-1.86-3.34A11.78,11.78,0,0,1,193.83,20.07Z"/><path d="M195,115.4c.74-1.72,1.76-3.86,3.16-6.63-7.47,7.84-12.53,10.7-14.69,11.67a7.6,7.6,0,0,1-1.2.46s-4.61,27.2,2.56,39.29c.65,2.08,2.42,2.66,4.92,3.61l3.34.08c2.45,0,4.89.1,7.34.07a1.07,1.07,0,0,0,.79-.71c.29-3.58-1.45-7.16-5.76-6.44-1,.17-1.9,1-2.15.26-.09-1-.18-1.92-.27-2.84-.3-3.22-.84-6.43-.86-9.65,0-5.59.25-11.18.44-16.77,0-1.43.33-2.87.36-4.31a14.15,14.15,0,0,1,1-5.53A17.3,17.3,0,0,1,195,115.4Z"/><path d="M46.42,142.87A57.38,57.38,0,0,0,46,159.42a55.54,55.54,0,0,0,1.6,6.5s1.69,4.35,10.84,2.7c2.27.08,3.15-.82,2.83-2.52a6.38,6.38,0,0,0-.74-1.93A3.4,3.4,0,0,0,56,162.68l-.22.12c-.32.18-1.44-1.53-1.44-3.59C54.43,151,52.67,147.14,63,137c-7,4.16-11.12,4.3-14.08,5.16C48.75,142.21,46.46,142.6,46.42,142.87Z"/><path d="M237.43,22.79a43.4,43.4,0,0,1-10.62,2.77,13.09,13.09,0,0,0-4,1.28c-.5.24-.7,1.12-1,1.7.48.28.94.58,1.43.81a2.19,2.19,0,0,0,.8.12,12.93,12.93,0,0,0,9.25-3.16A25.65,25.65,0,0,1,235.47,25a5.51,5.51,0,0,0,.4,1.61c.23.32.83.71,1.08.61a19.17,19.17,0,0,0,3.21-1.59,2.78,2.78,0,0,0,1.52-2.76A5.68,5.68,0,0,0,237.43,22.79Z"/><path class="cls-2" d="M93.59,119.65c.68.75.69.75.63,2.2-1.41-.43-2.81-.84-4.19-1.28-.45-.15-.9-.32-1.35-.49-.18.21-.37.41-.57.62.67.27,1.36.51,2.06.72a16.77,16.77,0,0,1,5,2.08.47.47,0,0,0,.66,0A.68.68,0,0,0,96,123a6.13,6.13,0,0,0-.5-1.73,14.41,14.41,0,0,0-3-3.9l-1.19-1c-.12.23-.25.47-.39.7A36.7,36.7,0,0,1,93.59,119.65Z"/><polygon class="cls-2" points="44.64 114.67 44.65 114.67 44.78 114.08 44.64 114.67"/><path class="cls-2" d="M46.5,105l.27.06.06-.26Z"/><path class="cls-2" d="M81.62,111c2.47-.81,5-1.33,7.55-2a56.07,56.07,0,0,1,9-1.45,3.09,3.09,0,0,1,1.77.29,19.41,19.41,0,0,0,4.51,1.49c2.37.59,4.88.53,7.16,1.52a.36.36,0,0,0,.49-.1c.16-.25,0-.47-.15-.65a6.29,6.29,0,0,0-1.86-1.15c-.66-.33-1.32-.64-2-1s-1.26-.69-1.88-1c.17-.47.49-.47.78-.51,2-.25,4-.52,6-.72,3.52-.35,7-.63,10.56-1.13a3.93,3.93,0,0,1,1.45,0,16.25,16.25,0,0,0,4.18.18c.67,0,1.35.15,2,.09a2.73,2.73,0,0,1,3,1.58,1.21,1.21,0,0,0,.91.82,7.32,7.32,0,0,1,2.7,1.09,4.22,4.22,0,0,0,2.28.51,13.94,13.94,0,0,1,4.37.24,11.82,11.82,0,0,0,5.25.42c2-.34,3.88-1,5.82-1.5a1,1,0,0,0,.33-.16,3.17,3.17,0,0,1,2.09-.51,13.19,13.19,0,0,0,4-.6,1.5,1.5,0,0,0,1.16-.81c.18-.38.58-.62,1-1.21h1.1a8.75,8.75,0,0,0,5.37-.48,4.17,4.17,0,0,0,1.87-1.68,1.49,1.49,0,0,0-.35-1.83,1.91,1.91,0,0,0-.77-.47,13.35,13.35,0,0,1-3.61-1.68,4.2,4.2,0,0,0-1.93-.5c-.61,0-1.23,0-1.84,0a5.36,5.36,0,0,1-2.5-.43,12.87,12.87,0,0,0-5.15-1.13,1.23,1.23,0,0,1-1-.31,3.85,3.85,0,0,0-3.19-1c-1.16,0-2.29-.17-3.43-.18-4,0-7.81.46-11,3.19a3.89,3.89,0,0,1-.78.48,1.68,1.68,0,0,0-1,1,.88.88,0,0,1-1,.68,2.37,2.37,0,0,0-2.4,1.33,1.1,1.1,0,0,1-1.07.58,44.28,44.28,0,0,0-6.18.7,11.55,11.55,0,0,0-2.87.33c.15.33.35.67-.23.79a1.49,1.49,0,0,1-.36.05c-2.06.2-4.12.45-6.18.57-3,.16-5.94.61-8.88,1-2.35.36-4.74.37-7,.93a1,1,0,0,1-.55,0,.43.43,0,0,1-.28-.18c-.06-.23.12-.31.29-.34a16.3,16.3,0,0,0,3.18-.56c-.2-.11-.4-.29-.6-.29a28.35,28.35,0,0,0-5.28.49c-2.08.48-4.16,1-6.27,1.33a46.93,46.93,0,0,0-5.38,1.06,13.07,13.07,0,0,1-3.63.48c-.23,0-.5.06-.65-.34A35,35,0,0,1,85.91,106a15.11,15.11,0,0,0,3.34-1.48,7.18,7.18,0,0,1,1.84-.8,18.91,18.91,0,0,0,4.31-1.53,12.79,12.79,0,0,1,1.55-.55,7.53,7.53,0,0,1,5.89.07,22.24,22.24,0,0,0,8.63,1.3c1.77,0,3.54-.07,5.31-.12a10.1,10.1,0,0,0,1.45-.19.3.3,0,0,0,.22-.24.75.75,0,0,0-.17-.47,1,1,0,0,0-.49-.23A21,21,0,0,1,113,100a13.91,13.91,0,0,0-2.58-.92,15.79,15.79,0,0,0-4.15-.62,4.1,4.1,0,0,1-.69-.1,4.07,4.07,0,0,1,2.34-1.61,21,21,0,0,0,4-1.78l6.27-3c1-.51,2.09-1,3.1-1.58,1.59-.9,3.16-1.86,4.72-2.81,1.87-1.15,3.72-2.32,5.58-3.48a9,9,0,0,1,3.74-1.4,50.48,50.48,0,0,1,10.06-.14,2.61,2.61,0,0,0,1.74-.13,3.15,3.15,0,0,0-1.86-.53,47,47,0,0,0-7.31-.18c-.73.06-1.46.09-2.19.1-.27,0-.63.07-.75-.33a15.07,15.07,0,0,1,3.34-3.56,41.31,41.31,0,0,0,3.8-2.93c2.43-2.2,5.05-4.2,7.53-6.34a7.28,7.28,0,0,1,2.33-1.4h0a5.11,5.11,0,0,0,4.28-.41.22.22,0,0,0,.1-.13.48.48,0,0,0,0-.17c0-.15-.09-.26-.23-.21-.77.28-1.5.46-2.1-.35-.12-.15-.45-.15-.68-.2s-.59-.09-.88-.17c-.47-.12-.52-.29-.38-1a1.87,1.87,0,0,1,.08-.32,4.16,4.16,0,0,1,2.46-.57c.67.1,1.79-.76,2,.71a1.61,1.61,0,0,0,.31,0,1.5,1.5,0,0,0,.34-.11c.11,0,.5-.15.63.14s-.08.33-.22.45-.32.25-.22.43a.51.51,0,0,0,.43.2,2.71,2.71,0,0,0,.89-.18,12.84,12.84,0,0,0,3.95-2.26c.32-.32.63-.59.62-1a.83.83,0,0,1,.73-.9c.6-.15,1.24-.36,1.39-1a1.71,1.71,0,0,1,1.22-1.23,4.2,4.2,0,0,0,2.37-1.63,1.6,1.6,0,0,1,.72-.53,11.65,11.65,0,0,1,2.92-1.08,4.43,4.43,0,0,0,1.07-.22c.92-.45,2-.81,1.77-2.21a1.43,1.43,0,0,1,.77-1.37c.92-.61,1.86-1.18,2.79-1.77a12.19,12.19,0,0,0,1.22-.8.77.77,0,0,0,.33-1.06.56.56,0,0,0-.14-.2c-.31-.46-.69-.88-.52-1.49.21-.79-.37-1-.85-1.41-.11.58-.2,1.12-.31,1.65-.15.7.4,1.12.63,1.67a.5.5,0,0,1,0,.34,2,2,0,0,1-1.55.8.58.58,0,0,1-.39-.72h0c.14-.81,0-1.32-1-1.35-.34,0-.36-.3-.19-.51a9.57,9.57,0,0,1,.77-.79,1.63,1.63,0,0,0,.53-1.14c0-.43-.32-.61-.58-.87a.53.53,0,0,1,.28-.84c.58-.25,1,.32,1.55.23a.86.86,0,0,0-.66-1,1.73,1.73,0,0,0-2,.51c-.23.29-.37.63-.57.94a.56.56,0,0,1-.78.19h0a3.06,3.06,0,0,1-.63-.37,2,2,0,0,0-2.67.08,1.17,1.17,0,0,1-1.33.2c-1.39-.51-1.76-.33-2.59.88-.41.61-.85,1.19-1.28,1.78a1,1,0,0,1-1.41.47,2.59,2.59,0,0,0-2.43.43,8.41,8.41,0,0,0-1.89,1.73,2.07,2.07,0,0,1-1.32.89,2.28,2.28,0,0,0-1.72,1.5,2.71,2.71,0,0,1-.86,1.38,3.42,3.42,0,0,0-1.07,1.23,1.1,1.1,0,0,1-1.22.62c-.84-.18-1.24.26-1.61.88-.19.32-.54.55-.66.88a4.38,4.38,0,0,1-2.73,2.68c-1.37.54-1.68,1.62-1.16,3a5.16,5.16,0,0,1,.25,1.95c0,.77.06,1.45-.62,2A3.31,3.31,0,0,1,146.26,69a42.67,42.67,0,0,0-3.68,3.3,22,22,0,0,1-2.05,1.82c-2,1.56-4.1,3.08-6.16,4.61-.64.47-1.33.88-1.94,1.39A63.55,63.55,0,0,1,126,84.71a53.55,53.55,0,0,1-5.37,3.16c-2.18,1.12-4.26,2.39-6.51,3.38a27.28,27.28,0,0,0-5.41,3.08,2.23,2.23,0,0,1-1.13.58,10.34,10.34,0,0,0-3.39,1.33,22.1,22.1,0,0,1-3,1.3,12.81,12.81,0,0,0-2.68,1.17,6.55,6.55,0,0,1-1.7.67c-.63.19-1-.15-.84-.74a9.7,9.7,0,0,0,.23-5.07,1.69,1.69,0,0,1,0-.55,8.88,8.88,0,0,0-.57-4.14,7.3,7.3,0,0,1-.31-1.8c-.07-.8.18-1,.92-1a4.18,4.18,0,0,1,2.54.92,1.41,1.41,0,0,0,1.35.39c1.13-.27,2.25-.57,3.38-.82a22.82,22.82,0,0,0,4.91-1.43,1.94,1.94,0,0,1,.54-.13,13.12,13.12,0,0,0,5-1.75,11.87,11.87,0,0,1,4.66-1.53,1.14,1.14,0,0,0,1.12-.8,2.81,2.81,0,0,1,1.88-1.61c.73-.31,1.49-.56,2.2-.91a2.73,2.73,0,0,0,1.74-2.77,1.17,1.17,0,0,1,.78-1.27c.79-.46,1.56-1,2.32-1.48a4.31,4.31,0,0,0,.78-.76c.23-.25.21-.7,0-.81a.48.48,0,0,0-.63.2,9.45,9.45,0,0,1-2.76,2.1c-.53.3-1.1.53-1.64.82s-.52.52-.19,1c.53.81.52,1,0,1.54a4.66,4.66,0,0,1-1.82,1.21c-.52.19-1,.38-1.56.54A2.4,2.4,0,0,0,119.36,80a1.89,1.89,0,0,1-1.43,1,12.4,12.4,0,0,0-2.81.81c-.28.12-.44-.09-.46-.37a.54.54,0,0,1,0-.18c0-.33-.12-.63-.5-.65s-.33.29-.42.51c-.51,1.17-.89,1.44-2,1.4a.51.51,0,0,1-.42-.27.61.61,0,0,1,.11-.5,4.22,4.22,0,0,1,.56-.47c.14-.13.24-.29.12-.48a.61.61,0,0,0-.62-.3,1.41,1.41,0,0,0-1,.76c-.23-.4-.4-.86-1-1-.39-.09-1,0-1.08-.51s.57-.66.94-.92c.1-.07.23-.1.33-.16a.65.65,0,0,0,.34-.77,3.41,3.41,0,0,0-.13-.53c0-.18,0-.38.21-.44a.48.48,0,0,1,.33.1c.33.24.58.75,1.07.51a.9.9,0,0,1,1.22.4,3.31,3.31,0,0,0,.78.76c.47.38,1.1.2,1.07-.38a1.28,1.28,0,0,1,1-1.31,1.09,1.09,0,0,0,.82-1.08c0-.29.24-.57.26-.87.08-1,.31-2-.84-2.53-.1,0-.15-.19-.2-.3a.6.6,0,0,1,0-.68.51.51,0,0,1,.67-.1c.26.16.46.4.71.57a.62.62,0,0,0,.88,0,.52.52,0,0,0,.12-.17,8.63,8.63,0,0,1,.74-1c.28-.28,1.31.3,1.31.3V69.45c0,.13.16.39.36.33a.73.73,0,0,0,.34-.39c.2-.44,0-.88,0-1.33a.75.75,0,0,1,.2-.5,1.8,1.8,0,0,1,2.46.33.91.91,0,0,0,1.11.67l.17-.07a13.15,13.15,0,0,1,1.63-.26c.33,0,.73.08,1-.38-.33-.51-.91-.23-1.33-.43a.44.44,0,0,1-.28-.44.45.45,0,0,1,.34-.4,2.52,2.52,0,0,1,.72-.07,3.9,3.9,0,0,1,2.55,1.33.66.66,0,0,0-.14-.81,3.05,3.05,0,0,0-1.93-1,9,9,0,0,0-3.1,0c-2,.38-2,.34-3.79-.75l-.47-.29a1.82,1.82,0,0,0-1.24-.25,6.56,6.56,0,0,0-3.29,1,3.57,3.57,0,0,1-2.42.66,27.36,27.36,0,0,0-5.27.5,2.07,2.07,0,0,0-1.4.84,5.58,5.58,0,0,1-3.14,1.84A9.83,9.83,0,0,0,98,72.43a2.32,2.32,0,0,1-.76.53c-1.32.64-1.33,2.25-2.21,3.23a1.87,1.87,0,0,0-.51,1.41A15.49,15.49,0,0,1,94,81a3.39,3.39,0,0,1-1.23,2,6.91,6.91,0,0,1-2.27,1.35,40,40,0,0,0-6.56,3.4c-1.92,1.14-3.66,2.61-5.74,3.43-1.88.76-3.79,1.45-5.69,2.17a.68.68,0,0,1-.7,0,.71.71,0,0,1,.35-.59,7.65,7.65,0,0,0,2.34-4.33,22.34,22.34,0,0,0,.44-2.7,16.9,16.9,0,0,1,.66-3c.49-1.59.92-3.16,1.36-4.81a12.54,12.54,0,0,0,.18-3.46.51.51,0,0,0-1-.28c-.36.6-.7,1.21-1,1.82a12,12,0,0,1-2.23,3.29,33.77,33.77,0,0,0-4.48,5.6,9.44,9.44,0,0,0-2,6.72c.06.63,0,1.29,0,1.93A2,2,0,0,1,66,95a6.9,6.9,0,0,1-2.75,2.1c-1.58.52-3.11,1.16-4.66,1.74-1,.4-2.09.75-3.11,1.2-2.41,1-5,1.71-7.23,3.26-.31.23-.36.33-.65.42h-.12l-.14.71.12-.08c2.64-1.61,11.5-5.14,14.38-5.47l-14.27,5.84h-.78l-2,9.56,1.79-7.94h0a1.27,1.27,0,0,0,1.21-.86c.1-.17.42-.23.65-.31,3.15-1.16,6.32-2.29,9.47-3.48a11.51,11.51,0,0,1,7.38-.21,37.39,37.39,0,0,0,5.75,1c2.78.34,5.48-.34,8.21-.46.12,0,.27-.24.32-.39a.35.35,0,0,0-.25-.43h0a13.16,13.16,0,0,1-2.7-1.09,19,19,0,0,0-7.79-2.5.32.32,0,0,1-.35-.28v-.07a6.11,6.11,0,0,1,2.18-.88,29.51,29.51,0,0,0,5.53-1.94c2.42-1,4.82-2.09,7.23-3.14a13.22,13.22,0,0,0,2.16-1,62.41,62.41,0,0,1,5.91-2.93,12.32,12.32,0,0,1,1.2-.45c.17,0,.39-.13.49.07a.72.72,0,0,1,0,.5,13.67,13.67,0,0,0-1.26,2.85,16.51,16.51,0,0,1-1,3,6.33,6.33,0,0,0-.21,4.31c.24.82.48,1.64.73,2.46.33,1,.22,1.29-.76,1.66l-.35.12c-3.34,1.19-6.71,2.28-10,3.6-2.43,1-5,1.64-7.25,3a2.38,2.38,0,0,1-.68.28c-1.72.41-3.31,1.3-5.12,1.36a3.45,3.45,0,0,0-.88.27,23.47,23.47,0,0,1-5.74,1.14,13.19,13.19,0,0,0-3.06.55,72.94,72.94,0,0,1-13,2.73h0l-.48,2.23h0a11.71,11.71,0,0,1,2.21-.36,90.55,90.55,0,0,0,9.47-2.13,7.17,7.17,0,0,1,.9-.18c2.82-.55,5.64-1.08,8.45-1.68a10.18,10.18,0,0,1,4.36-.08c1.13.26,2.24.61,3.37.84a15.39,15.39,0,0,1,2.81.84L79.49,116a1.78,1.78,0,0,0,1.19.28,3.6,3.6,0,0,0,.58.65c.85.63,1.73,1.21,2.63,1.76.56.34,1.12.66,1.7,1L86,119c-.57-.28-1.12-.58-1.66-.9a22.61,22.61,0,0,1-2-1.27,2.6,2.6,0,0,0-1.64-.61,1.19,1.19,0,0,0-.62-.61c-2.52-1.1-5-2.4-7.74-2.75-.4-.06-.86-.09-1-.59,0,0,.08-.14.12-.14,3.09-.41,6.16-1,9.28-.35a16,16,0,0,1,2.81.77,27.36,27.36,0,0,1,3.75,1.88c.36.22.71.46,1.06.7l.36-.72c-.31-.22-.62-.44-.94-.64a16.82,16.82,0,0,0-2-1.09C84.42,112,83,111.44,81.62,111ZM134,103a1.16,1.16,0,0,1,1.1-.12,1.42,1.42,0,0,1-1.1.13Zm3,1.27a6,6,0,0,1-.75.49,1,1,0,0,0-.5.9c0,.3-.15.45-.45.35a.55.55,0,0,1-.42-.67v0c.2-.42.51-.79.37-1.3a2.39,2.39,0,0,1,1.55-.23.4.4,0,0,1,.28.19.38.38,0,0,1-.08.31Zm-1.4-1.41a1.44,1.44,0,0,1,1-.1,1.42,1.42,0,0,1-1,.15Zm33.15.73-6.32,1a3.94,3.94,0,0,0-.69.21,2.79,2.79,0,0,1-2.87-.38,17,17,0,0,0,4.78-1.38,1.81,1.81,0,0,1,1.23-.17,2.63,2.63,0,0,0,1.56-.27,1.11,1.11,0,0,0,.84,0h0l2.24.54c-.14.47-.49.42-.76.46Zm-9.25-1a3.51,3.51,0,0,1,2.39-.76.41.41,0,0,1,.29.18.35.35,0,0,1-.1.47c-.13.12-.29.29-.44.29a15.85,15.85,0,0,1-2.13-.13Zm8.29-1.79a3,3,0,0,1,3.27.07,1.05,1.05,0,0,1,.56,1,1,1,0,0,1-1,.67,11.8,11.8,0,0,1-1.44-.18,3.05,3.05,0,0,0-2,.11,1.22,1.22,0,0,0-.8,0c-.54-.46-.55-.49-.19-.73s1.1-.57,1.61-.89Zm-6-.3a.72.72,0,0,1,.33-.4,1.35,1.35,0,0,1,1.52.17c.62.42.74.41,1-.31a1,1,0,0,1,1.09-.75c.37,0,.76-.07,1,.34a1,1,0,0,1-.41,1.28,3.38,3.38,0,0,1-.41.24,2.59,2.59,0,0,1-2,.28c-.57-.19-1.18-.29-1.76-.45a.35.35,0,0,1-.32-.35Zm-7.68-1.45c0,.21-.1.33-.27.4a7.77,7.77,0,0,0-1,.35.65.65,0,0,0-.33.38c-.26.89-.25.89-1,.94a10.1,10.1,0,0,0-1.64.15,5.14,5.14,0,0,0-1.22.34c-.63.28-.72.79-.24,1.3a5.27,5.27,0,0,0,.68.57,4.85,4.85,0,0,1-2.75-.69c-.21-.08-.17-.56.06-.61a2.28,2.28,0,0,0,1.8-1.61,1.15,1.15,0,0,1,.64-.62,1.8,1.8,0,0,0,.83-.69,1.77,1.77,0,0,1,1.56-.74,10.06,10.06,0,0,0,1.09-.11,2.91,2.91,0,0,1,1.58.37.47.47,0,0,1,.25.32Zm-6.7-2.41a1.07,1.07,0,0,1,1-.3,3.05,3.05,0,0,0,2-.11,3.77,3.77,0,0,1,2,0,.52.52,0,0,1,.41.28c.08.31-.21.4-.44.45-.89.19-1.79.4-2.69.53a5.23,5.23,0,0,1-2.31-.41s0-.11-.08-.16.07-.16.15-.23Zm-1.68-1a1,1,0,0,1,.29.1A.51.51,0,0,1,146,96l-.28-.09Zm-1.88,2.66a4.21,4.21,0,0,0,.3-.84c.1-.34.11-.8.55-.85a1.4,1.4,0,0,1,1.4.63.62.62,0,0,1,0,.5c-.09.14-.28.22-.42.34a.44.44,0,0,0-.12.61v0a.64.64,0,0,0,.44.27,7.5,7.5,0,0,0,1.25-.16c.29-.06.57-.21.86-.29s.41,0,.42.21a.56.56,0,0,1-.32.38c-.34.12-.71.14-1.06.25a.49.49,0,0,0-.39.56.39.39,0,0,0,.06.15,1.36,1.36,0,0,1,.14.33.57.57,0,0,1-.43.67h-.19A3.42,3.42,0,0,1,144,99.49a1.31,1.31,0,0,1-.07-1.12Zm1.15,4a.62.62,0,0,1-.59.36h-.73c-.71,0-.71,0-.91.8s-.32.85-.93.81a6,6,0,0,1-.72-.11c-.35-.1-.77-.2-.87-.59s.36-.5.68-.63a.72.72,0,0,0,.38-.35c.19-.85,1.18-1,1.34-1.92a7.39,7.39,0,0,1,2.08,1,.51.51,0,0,1,.31.64Zm-4-5.49a6,6,0,0,1,2.16-.59.39.39,0,0,1,.35.44.15.15,0,0,1,0,.07,1.86,1.86,0,0,1-1.74,1.31h-.36c-.54-.12-1.2.31-1.61-.37C140,97.1,140.7,97.15,141,96.83ZM134,100.68c.31-.08.39.17.55.35.45.5.6.48,1,0s.83-.9,1.2-1.38c1.39-1.87,3.29-1.62,5.19-1.24.14,0,.23.24.35.36-.14.11-.27.29-.42.31-.92.12-1.83.21-2.75.31-.37,0-.75,0-1,.41.1,0,.19.16.3.16,1.58.11,1.58.11,1.17,1.51-.07.24-.19.47-.26.7a1.42,1.42,0,0,0,.55,1.93l.17.09a4.65,4.65,0,0,0,2.67.53,1.26,1.26,0,0,0,1-.73,1.59,1.59,0,0,1,1.17-.8c.31-.06.63-.14.86.12a4.42,4.42,0,0,0,2.67,1.12.28.28,0,0,1,.29.35.38.38,0,0,1-.25.23c-.48.1-1,.16-1.43.26a.39.39,0,0,0-.2.28.36.36,0,0,0,.21.27,3,3,0,0,0,2.48-.31,1,1,0,0,0,.54-.7c.08-.69.53-.91,1.12-1,.84-.18,1.68-.39,2.5-.63a.63.63,0,0,0,.33-.4.53.53,0,0,0-.36-.58,5.49,5.49,0,0,0-1.07-.22,5.72,5.72,0,0,1-1.93-.24l3.17-.7c.31-.07.42.11.58.3a.69.69,0,0,0,.46.22.55.55,0,0,0,.58-.37.67.67,0,0,0,0-.52,3.22,3.22,0,0,0-.6-.42c-.24-.16-.31-.36-.1-.6a1.59,1.59,0,0,0,.58-.9c.12-1.09.14-1.09,1.06-1.18a6.86,6.86,0,0,1,1.11,0,.64.64,0,0,1,.46.21c.11.19-.09.31-.24.39-.43.24-.94.36-1.19.83a.4.4,0,0,0,0,.34c0,.08.21.2.28.16,1.08-.42,2.16-.84,3.22-1.33.81-.36.79-.4,1.7.49a18.75,18.75,0,0,0-3.84,1.39c-.39.19-1-.12-1.22.48.38.37.83,0,1.23.12a.93.93,0,0,1,.45.28c.17.25,0,.42-.2.59s-.61.61-1,.86a1.4,1.4,0,0,0-.49,1.48.76.76,0,0,0,.47.71c.29.12.6.17.89.27s1,0,.92.61c-.05.39-.63.25-1,.31a2,2,0,0,1-1.68-.55,4.48,4.48,0,0,0-5.05,0,.36.36,0,0,0-.14.48h0a.38.38,0,0,0,.47.13,5.16,5.16,0,0,1,2.31-.54c.59.08.5.24.24.65s.23.47.46.64a.31.31,0,0,1,0,.56,1.71,1.71,0,0,1-1.76.05.65.65,0,0,0-.91.15l0,.07a3.26,3.26,0,0,1-2.56,1.17,14.25,14.25,0,0,1-5.66-.6,6.48,6.48,0,0,0-2.73-.29h-1.29a4.27,4.27,0,0,1-2.88-1c-.06-.59.48-.84.69-1.26a.8.8,0,0,1,1-.41.78.78,0,0,1,.41.41,8.8,8.8,0,0,1,.42,1c.12.29.25.58.61.6a1.09,1.09,0,0,0,1-.73c.14-.44-.15-.67-.46-.89-.56-.39-1.1-.79-1.65-1.18-.16-.11-.41-.2-.43-.33-.16-1-1.07-1.07-1.66-1.52.51-.12,1-.26,1.52-.43a.57.57,0,0,0,.28-.41c0-.21-.21-.28-.39-.25-.85.14-1.67.32-2.52.44a1.7,1.7,0,0,0-1.28.9h0c-.66-.06-1-.35-1-1a1,1,0,0,1,.62-1Zm24.78,4a1.16,1.16,0,0,1-.64,0Zm-30.68-1h3.48a3.82,3.82,0,0,1,.89.12c.06,0,.09.2.11.31s0,.11-.09.14a.63.63,0,0,1-.33.12c-2.73-.12-5.47.25-8.19-.2a14.45,14.45,0,0,1,4.14-.49Zm-22.86,4c1,.39,2.11.54,2.83,1.45a12.21,12.21,0,0,1-7.07-1.55,5.83,5.83,0,0,1,4.25.11ZM96.7,106.5a.36.36,0,0,1,.46,0c.09.1.07.23-.06.26a2.09,2.09,0,0,1-.5,0c.05-.07.05-.19.11-.23Zm-1.56.18h0Zm-.69,0h.44l-.42.12c-.17.06-.24,0-.18-.08a.19.19,0,0,1,.17-.06Zm57.59-40s.05.13,0,.15l-.44.39a2.9,2.9,0,0,1,.12-.57,1.16,1.16,0,0,1,.32,0Zm5.41-3h-1.09c-.36,0-1.14.24-1.36-.24-.29-.64.29-1.1.73-1.51a2.4,2.4,0,0,1,.9-.61,7,7,0,0,1,4.14-.16c.31.09.44.56.19.73-.79.57-1.6,1.11-2.1,1.45a3,3,0,0,1-1.46.32Zm3.36-.11a3.18,3.18,0,0,1-.65.51c-.24.06-.41.11-.59.14a.47.47,0,0,1-.55-.34.64.64,0,0,1,.13-.48,1.86,1.86,0,0,1,1.27-.58.43.43,0,0,1,.34.73Zm1.73-1.51c0,.1-.13.17-.2.26-.23,0-.49,0-.5-.3a.38.38,0,0,1,.2-.26.33.33,0,0,1,.43.21.19.19,0,0,1,0,.07Zm1-1.67a1.25,1.25,0,0,1-1.21.17,8.48,8.48,0,0,0-4.41-.75c-.09,0-.19-.11-.3-.17a2.88,2.88,0,0,1,.84-1.33,1.82,1.82,0,0,0,1.83.86l2.9-.22c.3,0,.63,0,.78.3a1.57,1.57,0,0,1-.47,1.12ZM166.77,58a17.51,17.51,0,0,1-2.16.29c-1.39.08-2.78.1-4.18.13a.29.29,0,0,1-.27-.31.28.28,0,0,1,.09-.19c.3-.2.63-.37.86-.51a8.1,8.1,0,0,1,5.77-.38c.23.07.52.1.51.42A.62.62,0,0,1,166.77,58Zm3.27-2.5a1.06,1.06,0,0,1-.9.52,9.93,9.93,0,0,1-4.14-.8c1.37-.19,2.73-.39,4.1-.56a2.44,2.44,0,0,1,.71.1.48.48,0,0,1,.33.59.57.57,0,0,1-.1.19Zm6.42-7.24c0,.73-.62,1-.52,1.51s-.28.66-.59.85a12,12,0,0,1-1.14.59c-.39.18-.86.52-.33,1.08.07.07.05.23.07.35.28,1.77.28,1.77-1.48,2.14l-.53.14c-1.24.39-1.12,0-1.76-.77a.48.48,0,0,1,0-.68.45.45,0,0,1,.13-.1c.4-.26.83-.51,1.25-.76A2.81,2.81,0,0,0,173,50.82a3,3,0,0,1,2.24-2.19ZM157.32,54a2.54,2.54,0,0,0,.92-1.33,4.8,4.8,0,0,1,.59-1.12c.13-.18.45-.4.59-.35,1.16.43,1.47-.46,1.92-1.16a4.26,4.26,0,0,1,1.27-1.3c.86-.56,1.72-1,2.65-.1.33.31.67.15.93-.21.79-1.08,1.59-2.16,2.41-3.23.5-.66.85-.68,1.51-.12.13.11.24.27.38.39a.57.57,0,0,0,.82,0c.28-.24.51-.52.77-.78a1.27,1.27,0,0,1,1-.36.8.8,0,0,1,.84.93c0,.18-.1.37-.07.54a.87.87,0,0,0,.28.42.41.41,0,0,0,.27-.15,1.12,1.12,0,0,1,1.59-.4.43.43,0,0,1,.31.51.42.42,0,0,1-.13.21c-.79.76-1.6,1.51-2.41,2.25a1.45,1.45,0,0,1-1,.43,6.35,6.35,0,0,0-2.76.74,3.39,3.39,0,0,1,1.11-1.38,1.83,1.83,0,0,0,.64-1.07.62.62,0,0,0-.39-.74,3.21,3.21,0,0,0-3.24,1.1.38.38,0,0,0,0,.33.31.31,0,0,0,.43.1l0,0a2.14,2.14,0,0,1,1.57-.81.65.65,0,0,1,.33.11.34.34,0,0,1,0,.48c-.9.91-1.81,1.81-2.71,2.7-.13.13-.28.24-.41.37s-.43.31-.19.57l.45-.2c.91-.43,0,.54.6.52.59-.44,1.52-.46,2.31-.89a1.35,1.35,0,0,1,1.06,0,2.8,2.8,0,0,1-1.24,1.51,12.09,12.09,0,0,1-5.62,2,.83.83,0,0,1-.76-.22,6.77,6.77,0,0,1,1.24-1.21,2.54,2.54,0,0,0,1-1.67.41.41,0,0,0-.23-.45.31.31,0,0,0-.43.09l0,0c-.67,2-2.36,2.91-4,3.89a9.37,9.37,0,0,0-3,2.74c-.45-.91-1-1.77-1.38-2.69C157,54.59,156.85,54.28,157.32,54ZM170,49.83a3.64,3.64,0,0,1-.34.34.8.8,0,0,1-.3.06c.07-.07.13-.17.21-.21a4.29,4.29,0,0,1,.43-.16ZM153.8,58.58a1.81,1.81,0,0,1,.29-1.22c.09-.14.29-.34.4-.32,1,.2,1.49-.61,2-1.2.39.25.18.46.1.66-.26.66-.26.65.41.93.46.19.55.42.34.83A5.12,5.12,0,0,1,156,60c-.8.63-1.68,1.15-2.56,1.75,0-.23-.09-.37-.06-.46A10.86,10.86,0,0,0,153.8,58.58Zm-1.51-.22a1.6,1.6,0,0,1,.75-.91v1a.49.49,0,0,1-.34.54.38.38,0,0,1-.33,0A.48.48,0,0,1,152.29,58.36Zm-2.75,3.1a5,5,0,0,1,2.36-1.29.66.66,0,0,1,.67.14.71.71,0,0,1,.06.84,2,2,0,0,1-1,1l-1,.46c-1.25.53-1.57.3-1.72-1.26h0c.21.27.43.32.63.11Zm.25,4.12a8.58,8.58,0,0,1,.16-1.45.84.84,0,0,1,.27-.45c.23-.18.52-.43.8-.2.13.1.08.43.11.67.5.12.53-.36.74-.59a1.62,1.62,0,0,1,1-.69.57.57,0,0,1,.33.11c.13.08.13.2,0,.32-.3.34-.82.48-1,1a1.63,1.63,0,0,0-.78.73,1.92,1.92,0,0,1-1.08.92.36.36,0,0,1-.55-.37ZM148,68.75a.15.15,0,0,1,.12.07l-.28.2L147.7,69Zm-1.66.93c.23.07.27.19.14.29-1.16.9-2,2.14-3.43,2.76a10.94,10.94,0,0,1,3.27-3Zm-3.48,3h.06l-.13.15a.33.33,0,0,1,.05-.15Zm-1.67,2c.11,0,.08.11-.06.18l-.22.12.15-.21s.08-.1.11-.09Zm-.35,0c-.27,1-1.09,1.3-2.15,1.68a6.7,6.7,0,0,1,2.13-1.68Zm-3.57,3c.13.07.1.14-.05.21l-.52.26.42-.42s.1-.07.13,0Zm-27.6,17c2-.88,3.84-1.86,5.78-2.75a67.47,67.47,0,0,0,8.5-4.67c2-1.32,4.1-2.65,6.13-4a8.1,8.1,0,0,0,.85-.7c1.8-1.54,3.76-2.84,5.67-4.23a2.33,2.33,0,0,1-.81,1.14,10.25,10.25,0,0,0-1.47,1.62,3.4,3.4,0,0,1-.75.81c-1.53,1-2.85,2.28-4.46,3.18-1.76,1-3.4,2.14-5.1,3.22-.47.29-.93.58-1.42.83-2.71,1.41-5.37,2.92-8.15,4.14a43.31,43.31,0,0,1-6.73,2.86,8.29,8.29,0,0,1,1.94-1.44Zm-40.9,4A17.94,17.94,0,0,1,76.41,101a.49.49,0,0,1,.25.41c0,.13-.25.27-.4.31a21.24,21.24,0,0,1-9.61-.42,16.35,16.35,0,0,0-4.86-.77c.4-.31.55-.41.68-.52.49-.38,1.1,0,1.59-.24A9.07,9.07,0,0,1,65.5,99a10.18,10.18,0,0,1,3.25-.35Zm1.23-5a6.33,6.33,0,0,0-1.34.94c-.62.57-1.29,1.08-1.94,1.62a24.94,24.94,0,0,0,.11-4.49,6.39,6.39,0,0,1,1.07-4,31.7,31.7,0,0,1,4.3-5.43A15.77,15.77,0,0,0,75,78.71a8.8,8.8,0,0,1,.6-.9.17.17,0,0,1,.17,0c.09.06.24.15.24.22a4,4,0,0,1-.08,1.09c-.48,1.7-1,3.4-1.52,5.08a11.45,11.45,0,0,0-.49,2c-.11.85-.23,1.69-.37,2.54A6.44,6.44,0,0,1,70,93.66Zm1.58,2h-.16a.14.14,0,0,1,.09-.13c.09,0,.12-.06.16,0s0,.07-.14.13Zm43,6a6.52,6.52,0,0,1-3.21.43c-5.14-.06-5.83-.33-10.29-2,2.5-1.89,10.69-1,13.4,1.57ZM96,100.49c2.56-.65,4.7-2.29,6.86-2.8.66-.3.93-.44,1.21-.55s.45-.19.66,0,0,.47-.42.66a2.8,2.8,0,0,1-.84.34c-2.16.31-4,1.54-6,2.25-.46.16-.91.35-1.37.51a.34.34,0,0,1-.32-.06C95.65,100.67,95.83,100.52,96,100.49Zm1-15.81-.51.54c-.35-.36-.69-.73-1-1.11a1.11,1.11,0,0,1,.36-1.53,1,1,0,0,1,.35-.14.83.83,0,0,1,.51.1c1,.6,1,1.3.23,2.14Zm2.9-.49c-.45.16-.5.47-.21.85a3.39,3.39,0,0,1,.44.56.34.34,0,0,1-.21.45h0A2,2,0,0,1,98,85.29v-.18c.58-.82.3-1.77.41-2.66a.22.22,0,0,1,0-.17c.12-.12.25-.32.39-.34s.25.18.19.39c0,.4.21.51.56.49s.66,0,.75.34a.75.75,0,0,1-.41,1l-.14,0ZM113,76.66c-.2-.14-.39-.3-.58-.45s-.4-.32-.15-.57a.72.72,0,0,1,.67-.2c.58.1.76.75,1.29.93a.78.78,0,0,1-1,.42A.57.57,0,0,1,113,76.66ZM115.6,75c.17.52.06.9-.53,1.07a5.65,5.65,0,0,0-.8.34c-.07-.33-.14-.66-.22-1s-.14-.52-.23-.87C114.69,75.08,114.71,75.08,115.6,75Zm1.22-5.4a2,2,0,0,1-.56.45,2.8,2.8,0,0,0-1.7,1.79c-.1.41-.5.48-.88.51s-.48-.11-.4-.54a3.32,3.32,0,0,1,.15-.68c.27-.1.61-.14.61-.54a1.24,1.24,0,0,1,.62-1.23,2.77,2.77,0,0,1,2.13-.21C117,69.17,117,69.41,116.82,69.55ZM112.53,71c-.24,0-.53,0-.44-.36a.52.52,0,0,1,.6-.29c.42,0,.57.37.71.69ZM117,67.62l.08.06h-.25a.83.83,0,0,1,.17-.12Zm0,.47a2,2,0,0,1,2.13.26c.25.16.59.32.56.65s-.45.52-.79.61-.56.07-.6-.21c-.11-.82-.83-.94-1.3-1.34Zm-6,2.21c-.09-.14-.13-.28,0-.4s.23.06.23.1a.35.35,0,0,1-.23.27ZM109.67,72a2.77,2.77,0,0,1,.94-1.61,1.76,1.76,0,0,0,.21,1.31c.29.39,0,.66-.3.86a.59.59,0,0,1-.67.07.54.54,0,0,1-.15-.66Zm-1.18-.48c.08-.11.21-.09.31,0a1,1,0,0,1,0,1,.28.28,0,0,1-.4,0l0-.06c-.26-.37-.06-.68.16-1Zm-4.89,1a8.3,8.3,0,0,0,3.27-2.07,1.08,1.08,0,0,1,.46-.27c.17,0,.4-.12.52,0s.08.41,0,.63c-.38,1.16-1.52,1.52-2.38,2.11a2.7,2.7,0,0,1-2.29,0,4.57,4.57,0,0,1,.45-.43ZM102.24,75a1.31,1.31,0,0,1,1.24-1.16,2.2,2.2,0,0,1,1.74.39c.41.36.76.55,1.21,0s1.12-.33,1.69-.51a.85.85,0,0,1,.48.21c.13.12.37.48.6.68a1.06,1.06,0,0,0,1.48,0c.39-.3.78-.59,1.14-.92a2,2,0,0,1,1.67-.4.79.79,0,0,1-.49.8,4.64,4.64,0,0,0-1.83,1.48c-.27.41-.75.3-1.17.34-.84.08-1.06.34-1.07,1.16a2.51,2.51,0,0,0,.06.55.7.7,0,0,1-.49.86c-.62.27-1.22.55-1.3,1.38,0,.37-.42.38-.73.38a7.22,7.22,0,0,0-3,.64c-.48.23-.83.53-.64,1.14a.67.67,0,0,1-.14.68c-.16.23-.53.45-.19.76s.56,0,.84-.08.7-.23,1.06-.31a.36.36,0,0,1,.29.15.3.3,0,0,1-.06.3c-.46.28-1,.53-1.42.82a1.08,1.08,0,0,0-.53.72.43.43,0,0,0,0,.16.19.19,0,0,0,.28.17c.37-.19.71-.44,1.09-.63.71-.36,1.44-.67,2.15-1,.54-.27.87-.66.56-1.33a.63.63,0,0,1,0-.49c.54-.45,1-1,1.91-.75a8.77,8.77,0,0,0,1.76.24,1.66,1.66,0,0,0-.33,1.69c.46,1,.46,1-.64,1.2a10.83,10.83,0,0,1-1.27.08c-.08,0-.21-.13-.24-.22a.38.38,0,0,1,.09-.32c.27-.25.58-.45.85-.69a.38.38,0,0,0,0-.33.35.35,0,0,0-.29-.12c-.78.36-1.6.67-1.82,1.65a1.62,1.62,0,0,1-1.46,1.2,21.12,21.12,0,0,0-3.06.56.56.56,0,0,1-.65-.24,1.65,1.65,0,0,1-.34-1.71c.1-.22.18-.45.27-.68.23-.67.33-1.25-.42-1.75-.46-.3-.42-.65-.06-1.1.56-.7,1-1.42,2.16-1.46a6.78,6.78,0,0,0,2.38-.88,1.08,1.08,0,0,0,.61-.87c0-.17,0-.38-.28-.37a3.22,3.22,0,0,0-1.47.69,1.79,1.79,0,0,1-1.16.47A.57.57,0,0,1,103,78a.4.4,0,0,1,0-.34,1,1,0,0,1,.18-.31c.58-.88.6-1-.2-1.36C102.48,75.73,102.08,75.52,102.24,75Zm2.8,6.63a.36.36,0,0,1,.32-.35c.18,0,.44,0,.68-.06v.2c-.21.12-.4.24-.61.35s-.35.07-.39-.18Zm-10-.74a2.32,2.32,0,0,1,.5-2.39c1-.92,2-1.79,3-2.68A1.29,1.29,0,0,1,99,75.5a.89.89,0,0,1,.51,0c.2.09.16.32.09.48l-.52,1c-.18.35-.3.37-.13.69.6-.13.82-.67,1.12-1.09a3,3,0,0,0,.43-1A1,1,0,0,0,100,74.5c-.35-.26-.18-.53.08-.73a5.23,5.23,0,0,1,.94-.57c.32-.14.66-.27,1-.38.32.52,0,.87-.18,1.24a2.63,2.63,0,0,0,0,2.29c.4.83.12,1.38-.69,1.77-1,.48-2,.93-3,1.41a.34.34,0,0,0-.13.31c0,.28.25.26.4.21.69-.24,1.36-.53,2-.77a.33.33,0,0,1,.43.2h0a.45.45,0,0,1-.09.34,2,2,0,0,1-1.51.92,1.8,1.8,0,0,0-1.19.4c-.19.17-.45.28-.66.1-.63-.53-1.24-.3-1.88,0A.38.38,0,0,1,95,81a.33.33,0,0,1,0-.17ZM94.12,84,94,84v-.1ZM91,86.62a29.35,29.35,0,0,0-5.56,2.75A8.3,8.3,0,0,1,82,90.67a15.91,15.91,0,0,1,3.84-2.49A38.13,38.13,0,0,1,93,85.29a.39.39,0,0,1,.31.11.32.32,0,0,1-.08.28c-.73.34-1.45.68-2.18.95Zm1,6.63c.36-.77.51-1.63.8-2.44s.58-1.47.9-2.2a.53.53,0,0,1,.55-.39c.26,0,.37.31.43.54a10,10,0,0,1,.66,4.3,4.48,4.48,0,0,0,.15,1.63c.39,1.78-.3,3.36-.86,5a1.47,1.47,0,0,1-.74.79c-.77.46-1.23.33-1.61-.47,0-.11-.1-.22-.06-.14C91.33,97.52,91,95.41,92,93.25Zm-39.1,21.2a3.21,3.21,0,0,1-.86.28c-2.37.28-5.64,1-8,1.42v-.51h0c3.11-.57,5.68-1,8.79-1.54a1.15,1.15,0,0,1,.32.12C53.07,114.29,53,114.41,52.9,114.45Zm2.18-.57a3.94,3.94,0,0,1,2.81-.64A8,8,0,0,1,55.08,113.88Zm4.5-.73a3.91,3.91,0,0,1-1.56.07l1.45-.56a1,1,0,0,1,.87,0C60.52,112.77,60.1,113.08,59.58,113.15Zm4-.47a4.28,4.28,0,0,1,.16-1h.44c-.14.34-.28.38-.41.42s-.3.08-.24.58Zm1-.62h-.26l.22-.11c.15-.06.23,0,.19.09s-.12,0-.17,0Zm3.35-.57c-.45-.11,1.4-.67,3.51-.7a4.08,4.08,0,0,1,.69.09,3.79,3.79,0,0,1-.65.21,8.47,8.47,0,0,1-3.57.36Zm19.44-3.17a3.72,3.72,0,0,1-3.07.82,11.94,11.94,0,0,1,3-.86ZM75,108.65a4.1,4.1,0,0,1,1.6-.87c1.71-.5,3.29-1.33,5-1.92,3.17-1.11,6.29-2.37,9.53-3.28.2,0,.4-.06.6-.08-.78.76-1.81.61-2.58,1.12a9.84,9.84,0,0,1-2.26,1.21c-2.92.94-5.67,2.27-8.48,3.46a12.48,12.48,0,0,1-3.17.9.47.47,0,0,1-.34-.1C74.69,109,74.84,108.77,75,108.65Zm-.9,2a.19.19,0,0,1,.15,0l.25.06-.24.09c-.18,0-.26,0-.19-.14Zm.56-.17a30,30,0,0,1,8.15-1.22c-1.44.87-5.18,1.38-8.18,1.21Z"/><path class="cls-2" d="M148,83.15c-.84.32-1.67.7-2.53,1-1.86.57-3.73,1.1-5.55,1.79a7.2,7.2,0,0,1-1.78.35,12.72,12.72,0,0,1-3.08-.16,12.81,12.81,0,0,0-3.55-.26,3.51,3.51,0,0,0,.77.33c1.44.27,2.88.54,4.32.75a8.68,8.68,0,0,0,4.31-.53,70.48,70.48,0,0,1,10.14-3.07,6,6,0,0,0,1-.3.36.36,0,0,0,.23-.25.39.39,0,0,0-.29-.38,6.39,6.39,0,0,0-2.18-.13,6.91,6.91,0,0,0-2.68.07C147.36,82.7,148.05,82.49,148,83.15Z"/><path class="cls-2" d="M105.5,105.14a36.47,36.47,0,0,1,7.06-.81,9.08,9.08,0,0,0,3.53-.59,2,2,0,0,0-1.2-.11c-.6,0-1.21.11-1.81.09a41.54,41.54,0,0,0-9.16,1.14,3.82,3.82,0,0,0-1.44.64A6.75,6.75,0,0,0,105.5,105.14Z"/><path class="cls-2" d="M120.37,76.61a3.07,3.07,0,0,0-2.78.24.42.42,0,0,0-.19.47.32.32,0,0,0,.39.24h0c.51-.07,1-.46,1.61,0a4.41,4.41,0,0,1-1.93,1c-.68.24-1.39.42-2.08.64-.09,0-.23.2-.21.26a.35.35,0,0,0,.43.23,27.35,27.35,0,0,0,4.15-1.3,2.12,2.12,0,0,0,.86-.65.7.7,0,0,0-.08-1A.62.62,0,0,0,120.37,76.61Z"/><path class="cls-2" d="M124.92,71.65a2.86,2.86,0,0,0-1.93.2.52.52,0,0,0-.27.67,1.63,1.63,0,0,1-.28,1.7.33.33,0,0,0,.15.45h.46a8.6,8.6,0,0,1,2.21-2C125.6,72.44,125.35,71.75,124.92,71.65Z"/><path class="cls-2" d="M120.44,72.53c-.49.4-1.15.75-.86,1.6a1.19,1.19,0,0,1,0,.53c0,.29-.2.62.25.72a.57.57,0,0,0,.59-.34,9.54,9.54,0,0,0,.72-1.24,1.11,1.11,0,0,0-.07-1C120.88,72.56,120.64,72.36,120.44,72.53Z"/><path class="cls-2" d="M122.44,103.68Z"/><path class="cls-2" d="M119.38,103.44a4.61,4.61,0,0,0,3-.21A5.67,5.67,0,0,0,119.38,103.44Z"/><path class="cls-2" d="M131.41,85.68h0Z"/><path class="cls-2" d="M130.74,85.75c.09,0,.17.14.25.14a2,2,0,0,0,.42-.07,2,2,0,0,0-.4-.16C130.93,85.64,130.83,85.72,130.74,85.75Z"/><path class="cls-2" d="M116.2,103.68h0Z"/><path class="cls-2" d="M117.25,103.56a1.65,1.65,0,0,0-1,.16A2,2,0,0,0,117.25,103.56Z"/><polygon class="cls-2" points="117.31 103.55 117.31 103.55 117.3 103.57 117.31 103.55"/><path class="cls-2" d="M118.77,103.52a.75.75,0,0,0,.26,0,1.15,1.15,0,0,0,.25-.12,1.29,1.29,0,0,0-.28-.08C118.92,103.38,118.85,103.47,118.77,103.52Z"/><path class="cls-2" d="M119.28,103.68Z"/><line class="cls-1" x1="117.3" y1="103.57" x2="117.31" y2="103.55"/><path class="cls-2" d="M145.28,108c.21.08.53.2.68.11.77-.45,1.67-.3,2.45-.65.17-.07.32-.19.23-.39a.35.35,0,0,0-.28-.17,10.88,10.88,0,0,0-1.44.19c-1,.15-2,.27-2.45-1.07a.36.36,0,0,0-.27-.21,6.46,6.46,0,0,0-2.47.27.94.94,0,0,1-.07.35,2.44,2.44,0,0,0,.4.32C143.13,107.18,144.2,107.59,145.28,108Z"/><path class="cls-2" d="M160,54.1c.16-1.74,1.5-2.39,2.83-3a.35.35,0,0,1,.45.18.37.37,0,0,1,0,.18c-.06.34-.15.68-.23,1a2.4,2.4,0,0,0,1.11-1.74c.06-.23.09-.51-.18-.64a.77.77,0,0,0-.52,0,13.12,13.12,0,0,0-3,1.76,2.14,2.14,0,0,0-.78,1.21,1.88,1.88,0,0,0,0,1.4C159.87,54.25,160,54.18,160,54.1Z"/><polygon class="cls-2" points="163.08 52.5 163.08 52.5 163.05 52.48 163.08 52.5"/><line class="cls-1" x1="163.08" y1="52.5" x2="163.05" y2="52.48"/><path d="M86,119l-.44.61a43.05,43.05,0,0,1-8.8,9.13c2.71-.9,7.72-4.17,11.32-8,.2-.21.39-.41.57-.62a19.84,19.84,0,0,0,2.24-3c.14-.23.27-.47.39-.7a7.7,7.7,0,0,0,1-3.51c0-.44-2.51-1-2.52-1-.33.85-.71,1.67-1.1,2.47l-.36.72A36.26,36.26,0,0,1,86,119Z"/></g></g><path class="cls-2" d="M244.68,114.73a.48.48,0,0,0-.52-.17.46.46,0,0,0-.23,0,1.18,1.18,0,0,0-.32.26,1.46,1.46,0,0,0-.43.46c-.06.12-.1.25-.15.38a4.53,4.53,0,0,0-4.59-3.45c-6.43,0-6.44,10,0,10a4.55,4.55,0,0,0,3.75-1.72.39.39,0,0,0,.31-.23c.05-.1.1-.2.14-.3l0,0a.53.53,0,0,0,.13-.23.19.19,0,0,0,0-.08.56.56,0,0,0,.13-.28l.23-.39c.06-.13.12-.27.17-.4a1.09,1.09,0,0,0,0-.17l0-.08a2.75,2.75,0,0,0,.23-.6l.09-.07a.43.43,0,0,0,.12-.22,5,5,0,0,1,.11-.5v0a.48.48,0,0,0,0-.17v0s0-.06,0-.08a.57.57,0,0,0,0-.26v-.06h0a.45.45,0,0,0,.07-.25v0a.19.19,0,0,0,0-.08.73.73,0,0,0,.07-.24,1.82,1.82,0,0,0,.51-.36A.49.49,0,0,0,244.68,114.73Z"/></g></g></svg>